<?xml version="1.0" encoding="utf-8"?>
<COLLADA xmlns="http://www.collada.org/2005/11/COLLADASchema" version="1.4.1">
  <asset>
    <created>2025-03-19T07:46:04Z</created>
    <modified>2025-03-19T07:46:04Z</modified>
  </asset>
  <library_images>
    <image id="image-eyeR_0">
      <init_from>eyeR_0.png</init_from>
    </image>
    <image id="image-eyeL_0">
      <init_from>eyeL_0.png</init_from>
    </image>
  </library_images>
  <library_materials>
    <material id="material0" name="body_all">
      <instance_effect url="#effect0"/>
    </material>
    <material id="material1" name="eyeL">
      <instance_effect url="#effect1"/>
    </material>
    <material id="material2" name="eyeR">
      <instance_effect url="#effect2"/>
    </material>
    <material id="material3" name="swA">
      <instance_effect url="#effect3"/>
    </material>
    <material id="material4" name="swB">
      <instance_effect url="#effect4"/>
    </material>
  </library_materials>
  <library_effects>
    <effect id="effect0" name="body_all">
      <profile_COMMON>
        <technique sid="common">
          <phong>
            <emission>
              <color>0 0 0 1</color>
            </emission>
            <ambient>
              <color>1 1 1 1</color>
            </ambient>
            <diffuse>
              <color>1 1 1 1</color>
            </diffuse>
            <specular>
              <color>0 0 0 1</color>
            </specular>
          </phong>
        </technique>
      </profile_COMMON>
    </effect>
    <effect id="effect1" name="eyeL">
      <profile_COMMON>
        <newparam sid="Image-surface">
          <surface type="2D">
            <init_from>image-eyeL_0</init_from>
            <format>A8R8G8B8</format>
          </surface>
        </newparam>
        <newparam sid="Image-sampler">
          <sampler2D>
            <source>Image-surface</source>
            <wrap_s>CLAMP</wrap_s>
            <wrap_t>CLAMP</wrap_t>
            <minfilter>NEAREST</minfilter>
            <magfilter>NEAREST</magfilter>
            <mipfilter>NEAREST</mipfilter>
          </sampler2D>
        </newparam>
        <technique sid="common">
          <phong>
            <emission>
              <color>0 0 0 1</color>
            </emission>
            <ambient>
              <color>1 1 1 1</color>
            </ambient>
            <diffuse>
              <texture texture="Image-sampler" texcoord="tc"/>
            </diffuse>
            <specular>
              <color>0 0 0 1</color>
            </specular>
            <transparent>
              <texture texture="Image-sampler" texcoord="tc"/>
            </transparent>
          </phong>
        </technique>
      </profile_COMMON>
    </effect>
    <effect id="effect2" name="eyeR">
      <profile_COMMON>
        <newparam sid="Image-surface">
          <surface type="2D">
            <init_from>image-eyeR_0</init_from>
            <format>A8R8G8B8</format>
          </surface>
        </newparam>
        <newparam sid="Image-sampler">
          <sampler2D>
            <source>Image-surface</source>
            <wrap_s>CLAMP</wrap_s>
            <wrap_t>CLAMP</wrap_t>
            <minfilter>NEAREST</minfilter>
            <magfilter>NEAREST</magfilter>
            <mipfilter>NEAREST</mipfilter>
          </sampler2D>
        </newparam>
        <technique sid="common">
          <phong>
            <emission>
              <color>0 0 0 1</color>
            </emission>
            <ambient>
              <color>1 1 1 1</color>
            </ambient>
            <diffuse>
              <texture texture="Image-sampler" texcoord="tc"/>
            </diffuse>
            <specular>
              <color>0 0 0 1</color>
            </specular>
            <transparent>
              <texture texture="Image-sampler" texcoord="tc"/>
            </transparent>
          </phong>
        </technique>
      </profile_COMMON>
    </effect>
    <effect id="effect3" name="swA">
      <profile_COMMON>
        <technique sid="common">
          <phong>
            <emission>
              <color>0 0 0 1</color>
            </emission>
            <ambient>
              <color>1 1 1 1</color>
            </ambient>
            <diffuse>
              <color>1 1 1 1</color>
            </diffuse>
            <specular>
              <color>0 0 0 1</color>
            </specular>
          </phong>
        </technique>
      </profile_COMMON>
    </effect>
    <effect id="effect4" name="swB">
      <profile_COMMON>
        <technique sid="common">
          <phong>
            <emission>
              <color>0 0 0 1</color>
            </emission>
            <ambient>
              <color>1 1 1 1</color>
            </ambient>
            <diffuse>
              <color>1 1 1 1</color>
            </diffuse>
            <specular>
              <color>0 0 0 1</color>
            </specular>
          </phong>
        </technique>
      </profile_COMMON>
    </effect>
  </library_effects>
  <library_geometries>
    <geometry id="geometry" name="link_model_S">
      <mesh>
        <source id="positions">
          <float_array id="positions-array" count="2103">-0.12915039 0.6653112 -0.00004784616 -0.07055664 0.50849426 0.1163798 -0.064453125 0.66551507 0.10647622 0.07055664 0.50849426 0.1163798 0.064453125 0.66551507 0.10647622 0.12915039 0.6653112 -0.00004784616 -0.07055664 0.5086895 -0.10141778 -0.064453125 0.665454 -0.11025038 0.07055664 0.5086895 -0.10141778 0.064453125 0.665454 -0.11025038 0.12915039 0.6653112 -0.00004784616 -0.064453125 0.665454 -0.11025038 -0.07055664 0.5086895 -0.10141778 -0.12915039 0.6653112 -0.00004784616 -0.14086914 0.5087247 0.0065057874 -0.07055664 0.50849426 0.1163798 0.07055664 0.50849426 0.1163798 0.14086914 0.5087247 0.0065057874 0.12915039 0.6653112 -0.00004784616 0.07055664 0.5086895 -0.10141778 -0.4678548 0.81743383 -0.013616913 -0.46784306 0.7678571 -0.06514677 -0.5268067 0.7608926 -0.091154635 -0.4678616 0.7182969 -0.013619518 -0.5267057 0.695345 -0.01342022 -0.52684194 0.76092106 0.06416348 -0.6006854 0.76078504 -0.013443216 -0.5266989 0.82622457 -0.013573138 -0.5268067 0.7608926 -0.091154635 -0.4678548 0.81743383 -0.013616913 0.46807256 0.7678569 -0.065192804 0.46809357 0.81743485 -0.013419509 0.52702904 0.76089233 -0.091214694 0.5269402 0.82622427 -0.013634234 0.6009257 0.7607846 -0.013522344 0.5270988 0.76092196 0.06434544 0.5269469 0.6953447 -0.013481311 0.46810025 0.7182979 -0.013422108 0.52702904 0.76089233 -0.091214694 0.46807256 0.7678569 -0.065192804 -0.4678616 0.7182969 -0.013619518 -0.46786994 0.76787484 0.03815449 -0.52684194 0.76092106 0.06416348 -0.4678548 0.81743383 -0.013616913 -0.5266989 0.82622457 -0.013573138 0.5269402 0.82622427 -0.013634234 0.46809357 0.81743485 -0.013419509 0.5270988 0.76092196 0.06434544 0.46812463 0.76787466 0.03810703 0.46810025 0.7182979 -0.013422108 -0.5267057 0.695345 -0.01342022 -0.6006854 0.76078504 -0.013443216 -0.5268067 0.7608926 -0.091154635 0.5269469 0.6953447 -0.013481311 0.52702904 0.76089233 -0.091214694 0.6009257 0.7607846 -0.013522344 0.46812463 0.76787466 0.03810703 0.46809357 0.81743485 -0.013419509 0.36764377 0.7608395 0.04751175 0.3189767 0.8176785 -0.013523012 0.25541228 0.7608208 0.04369509 0.13474447 0.81010896 -0.013515852 0.12310743 0.751341 0.052512866 0.0848853 0.725379 -0.013436226 0.13252872 0.6972987 -0.013358202 0.12314892 0.751427 -0.079453014 0.31919998 0.70389104 -0.013463707 0.32143152 0.7607483 -0.07077653 0.33830348 0.76073 -0.07450383 0.3189767 0.8176785 -0.013523012 0.46809357 0.81743485 -0.013419509 -0.46784306 0.7678571 -0.06514677 -0.4678548 0.81743383 -0.013616913 -0.33807448 0.7607301 -0.074489556 -0.3189767 0.8176785 -0.013523012 -0.32143152 0.7607483 -0.07077653 -0.12314892 0.751427 -0.079453014 -0.31919998 0.70389104 -0.013463707 -0.13252872 0.6972987 -0.013358202 -0.25541228 0.7608208 0.04369509 -0.12310743 0.751341 0.052512866 -0.13474447 0.81010896 -0.013515852 -0.0848853 0.725379 -0.013436226 -0.12314892 0.751427 -0.079453014 -0.13252872 0.6972987 -0.013358202 -0.46784306 0.7678571 -0.06514677 -0.33807448 0.7607301 -0.074489556 -0.4678616 0.7182969 -0.013619518 -0.31919998 0.70389104 -0.013463707 -0.36738542 0.76083964 0.047534842 -0.25541228 0.7608208 0.04369509 -0.3189767 0.8176785 -0.013523012 0.12310743 0.751341 0.052512866 0.13252872 0.6972987 -0.013358202 0.25541228 0.7608208 0.04369509 0.31919998 0.70389104 -0.013463707 0.36764377 0.7608395 0.04751175 0.46810025 0.7182979 -0.013422108 0.46812463 0.76787466 0.03810703 0.0848853 0.725379 -0.013436226 0.13474447 0.81010896 -0.013515852 0.12314892 0.751427 -0.079453014 0.3189767 0.8176785 -0.013523012 0.32143152 0.7607483 -0.07077653 -0.12314892 0.751427 -0.079453014 -0.3189767 0.8176785 -0.013523012 -0.13474447 0.81010896 -0.013515852 -0.25541228 0.7608208 0.04369509 -0.4678616 0.7182969 -0.013619518 -0.36738542 0.76083964 0.047534842 -0.46786994 0.76787484 0.03815449 -0.4678548 0.81743383 -0.013616913 0.31919998 0.70389104 -0.013463707 0.33830348 0.76073 -0.07450383 0.46810025 0.7182979 -0.013422108 0.46807256 0.7678569 -0.065192804 -0.33807448 0.7607301 -0.074489556 -0.32143152 0.7607483 -0.07077653 -0.31919998 0.70389104 -0.013463707 -0.4678548 0.81743383 -0.013616913 -0.36738542 0.76083964 0.047534842 -0.3189767 0.8176785 -0.013523012 -0.13252872 0.6972987 -0.013358202 -0.0848853 0.725379 -0.013436226 -0.12310743 0.751341 0.052512866 0.33830348 0.76073 -0.07450383 0.46809357 0.81743485 -0.013419509 0.46807256 0.7678569 -0.065192804 0.08251953 0.7893443 -0.09663233 0.025634766 0.78916967 -0.1322817 0.08251953 0.41746044 -0.09627537 0.025634766 0.41752878 -0.13217011 0.08251953 0.34720552 -0.13206974 0.08251953 0.41759828 -0.16782068 0.13916016 0.41752878 -0.13217011 0.13916016 0.78916967 -0.1322817 0.08251953 0.41746044 -0.09627537 0.08251953 0.7893443 -0.09663233 0.08251953 0.78923917 -0.16793229 0.025634766 0.78916967 -0.1322817 0.13916016 0.78916967 -0.1322817 0.08251953 0.7893443 -0.09663233 0.13916016 0.78916967 -0.1322817 0.08251953 0.41759828 -0.16782068 0.08251953 0.78923917 -0.16793229 0.025634766 0.78916967 -0.1322817 0.08251953 0.41746044 -0.09627537 0.08251953 0.34720552 -0.13206974 0.13916016 0.41752878 -0.13217011 0.025634766 0.78916967 -0.1322817 0.08251953 0.41759828 -0.16782068 0.025634766 0.41752878 -0.13217011 0.08227539 0.78910136 -0.09638696 0.025390625 0.78916967 -0.1322817 0.08227539 0.29830125 -0.0961799 0.017822266 0.29836956 -0.13207465 0.08227539 0.2280463 -0.13197428 0.08227539 0.29843906 -0.16772522 0.14648438 0.29836956 -0.13207465 0.13891602 0.78916967 -0.1322817 0.08227539 0.29830125 -0.0961799 0.08227539 0.78910136 -0.09638696 0.08227539 0.788995 -0.16793108 0.025390625 0.78916967 -0.1322817 0.13891602 0.78916967 -0.1322817 0.08227539 0.78910136 -0.09638696 0.13891602 0.78916967 -0.1322817 0.08227539 0.29843906 -0.16772522 0.08227539 0.788995 -0.16793108 0.025390625 0.78916967 -0.1322817 0.08227539 0.29830125 -0.0961799 0.08227539 0.2280463 -0.13197428 0.14648438 0.29836956 -0.13207465 0.025390625 0.78916967 -0.1322817 0.08227539 0.29843906 -0.16772522 0.017822266 0.29836956 -0.13207465 0.06518555 0.90532345 -0.14774576 0.064208984 0.81927484 -0.11777843 0.06518555 0.9052264 -0.11771119 0.10083008 0.81903064 -0.117777236 0.10058594 0.9049822 -0.117709994 0.10083008 0.8191289 -0.14756763 0.10058594 0.90507925 -0.14774457 0.064208984 0.8193731 -0.14756882 0.06518555 0.90532345 -0.14774576 0.064208984 0.81927484 -0.11777843 0.123291016 0.95081514 -0.13258533 0.08325195 0.9480334 -0.102293424 0.107910156 0.9037793 -0.1140414 0.05859375 0.9037793 -0.1140414 0.05859375 0.9038416 -0.15115702 0.04321289 0.95081514 -0.13258533 0.08325195 0.9482238 -0.16309509 0.08325195 0.979873 -0.13248353 0.123291016 0.95081514 -0.13258533 0.08325195 0.9480334 -0.102293424 -0.004638672 0.78857476 -0.104198135 0.08227539 0.7886392 -0.041200094 0.08251953 0.8406903 -0.13253413 0.16918945 0.78857476 -0.104198135 0.13598633 0.7885618 -0.20650935 0.08325195 0.9482238 -0.16309509 0.123291016 0.95081514 -0.13258533 0.107910156 0.9038416 -0.15115702 0.107910156 0.9037793 -0.1140414 0.05859375 0.9038416 -0.15115702 0.13598633 0.7885618 -0.20650935 0.16918945 0.78857476 -0.104198135 0.028564453 0.7885618 -0.20650935 -0.004638672 0.78857476 -0.104198135 0.13598633 0.7885618 -0.20650935 0.028564453 0.7885618 -0.20650935 0.08251953 0.8406903 -0.13253413 -0.004638672 0.78857476 -0.104198135 0.08325195 0.979873 -0.13248353 0.04321289 0.95081514 -0.13258533 0.08325195 0.9480334 -0.102293424 0.05859375 0.9037793 -0.1140414 0.08227539 0.7886392 -0.041200094 -0.004638672 0.78857476 -0.104198135 0.16918945 0.78857476 -0.104198135 0.05859375 0.9038416 -0.15115702 0.08325195 0.9482238 -0.16309509 0.107910156 0.9038416 -0.15115702 0.125 0.8157858 -0.13216794 0.1328125 0.8385898 -0.16255794 0.21020508 0.7757413 -0.13197173 0.19067383 0.8164059 -0.15512386 0.24902344 0.804798 -0.1321141 0.22021484 0.8355651 -0.13202067 0.19067383 0.81638783 -0.108973816 0.19067383 0.8164059 -0.15512386 0.03930664 0.8157858 -0.13216794 0.03149414 0.8386447 -0.1015133 -0.045898438 0.7757413 -0.13197173 -0.026367188 0.81638783 -0.108973816 -0.0847168 0.804798 -0.1321141 -0.055908203 0.8355651 -0.13202067 -0.026367188 0.8164059 -0.15512386 -0.026367188 0.81638783 -0.108973816 0.08227539 0.9479821 -0.16260555 0.12939453 1.0240744 -0.13147919 0.114990234 0.94798553 -0.112060376 0.08227539 0.9890067 -0.112261355 0.049316406 0.94798553 -0.112060376 0.03515625 1.0240744 -0.13147919 0.08227539 0.9479821 -0.16260555 0.1328125 0.8385898 -0.16255794 0.125 0.8157858 -0.13216794 0.08227539 0.8452136 -0.15624173 0.08227539 0.7884169 -0.18624173 0.03930664 0.8157858 -0.13216794 0.013671875 0.7884383 -0.13203394 0.08227539 0.7884586 -0.078070335 0.24902344 0.804798 -0.1321141 0.19067383 0.81638783 -0.108973816 0.21020508 0.7757413 -0.13197173 0.1328125 0.8386447 -0.1015133 0.125 0.8157858 -0.13216794 0.1328125 0.8386447 -0.1015133 0.13110352 0.8924588 -0.13205524 0.08227539 0.8452063 -0.107894115 0.08227539 0.8924814 -0.07760328 0.033203125 0.8924588 -0.13205524 0.1328125 0.8386447 -0.1015133 0.08227539 0.8452063 -0.107894115 0.125 0.8157858 -0.13216794 0.08227539 0.7884586 -0.078070335 0.15063477 0.7884383 -0.13203394 0.03149414 0.8385898 -0.16255794 -0.026367188 0.8164059 -0.15512386 0.033203125 0.8924588 -0.13205524 -0.026367188 0.81638783 -0.108973816 0.03149414 0.8386447 -0.1015133 0.08227539 0.9479821 -0.16260555 0.03515625 1.0240744 -0.13147919 0.08227539 0.9890643 -0.15035367 0.08227539 0.9890067 -0.112261355 0.12939453 1.0240744 -0.13147919 0.10424805 0.9648048 -0.11800309 0.060058594 0.9648048 -0.11800309 0.08227539 0.47393888 -0.1312256 0.08227539 0.9646421 -0.15121073 0.10424805 0.9648048 -0.11800309 0.1328125 0.8385898 -0.16255794 0.13110352 0.8924588 -0.13205524 0.19067383 0.8164059 -0.15512386 0.19067383 0.81638783 -0.108973816 0.1328125 0.8385898 -0.16255794 0.08227539 0.8452136 -0.15624173 0.13110352 0.8924588 -0.13205524 0.08227539 0.89243615 -0.1865072 0.03930664 0.8157858 -0.13216794 -0.045898438 0.7757413 -0.13197173 0.03149414 0.8385898 -0.16255794 -0.026367188 0.8164059 -0.15512386 0.03149414 0.8385898 -0.16255794 0.033203125 0.8924588 -0.13205524 0.08227539 0.8452136 -0.15624173 0.08227539 0.89243615 -0.1865072 0.03149414 0.8386447 -0.1015133 0.03930664 0.8157858 -0.13216794 0.08227539 0.8452063 -0.107894115 0.08227539 0.7884586 -0.078070335 0.08227539 0.89243615 -0.1865072 0.033203125 0.8924588 -0.13205524 0.08227539 0.8924814 -0.07760328 0.13110352 0.8924588 -0.13205524 0.08227539 0.7884169 -0.18624173 0.15063477 0.7884383 -0.13203394 0.08227539 0.7884586 -0.078070335 0.013671875 0.7884383 -0.13203394 0.114990234 0.94798553 -0.112060376 0.049316406 0.94798553 -0.112060376 0.08227539 0.9479821 -0.16260555 0.13110352 0.8924588 -0.13205524 0.1328125 0.8386447 -0.1015133 0.19067383 0.81638783 -0.108973816 0.08227539 0.7884169 -0.18624173 0.125 0.8157858 -0.13216794 0.15063477 0.7884383 -0.13203394 0.033203125 0.8924588 -0.13205524 0.03149414 0.8386447 -0.1015133 0.08227539 0.8452063 -0.107894115 -0.0847168 0.804798 -0.1321141 -0.026367188 0.8164059 -0.15512386 -0.045898438 0.7757413 -0.13197173 0.03930664 0.8157858 -0.13216794 0.03149414 0.8385898 -0.16255794 0.08227539 0.8452136 -0.15624173 0.08227539 0.9890643 -0.15035367 0.12939453 1.0240744 -0.13147919 0.08227539 0.9479821 -0.16260555 0.064453125 0.665454 -0.11025038 -0.064453125 0.665454 -0.11025038 -0.05419922 0.78781015 -0.09909296 -0.16015625 0.73877513 -0.008504367 -0.1328125 0.7878038 -0.016994711 -0.05419922 0.78793883 0.068763174 0 0.86340535 -0.01879046 0.05419922 0.78793883 0.068763174 0.1328125 0.7878038 -0.016994711 0.16015625 0.73877513 -0.008504367 0.05419922 0.78781015 -0.09909296 0.064453125 0.665454 -0.11025038 -0.05419922 0.78781015 -0.09909296 -0.064453125 0.665454 -0.11025038 -0.12915039 0.6653112 -0.00004784616 -0.16015625 0.73877513 -0.008504367 -0.064453125 0.66551507 0.10647622 -0.05419922 0.78793883 0.068763174 0.064453125 0.66551507 0.10647622 0.05419922 0.78793883 0.068763174 0.16015625 0.73877513 -0.008504367 0.1328125 0.7878038 -0.016994711 0.05419922 0.78781015 -0.09909296 0 0.86340535 -0.01879046 -0.05419922 0.78781015 -0.09909296 -0.1328125 0.7878038 -0.016994711 0.064453125 0.66551507 0.10647622 0.12915039 0.6653112 -0.00004784616 0.16015625 0.73877513 -0.008504367 0.064453125 0.665454 -0.11025038 -0.36645508 1.0953304 -0.070353776 -0.24316406 0.93399656 0.017283177 -0.24584961 1.0638914 0.019920383 0.36645508 1.0953304 -0.070353776 0.24584961 1.0638914 0.019920383 0.24316406 0.93399656 0.017283177 0 1.1202068 0.29105824 0 0.9324647 0.29047763 0.19335938 1.1201531 0.24149948 0.19042969 0.9324052 0.23994237 -0.19042969 0.9324052 0.23994237 0 0.9324647 0.29047763 -0.19335938 1.1201531 0.24149948 0 1.1202068 0.29105824 0 1.2009715 0.24321097 -0.171875 1.2011546 0.19243012 0 1.1201085 0.2747019 -0.19262695 1.0734226 0.22469099 0 0.93236643 0.27412128 -0.19042969 0.93254954 0.22334044 0.19042969 0.93254954 0.22334044 0.19262695 1.0734226 0.22469099 0 0.93236643 0.27412128 0 1.1201085 0.2747019 0.19262695 1.0734226 0.22469099 0.171875 1.2011546 0.19243012 0 1.1201085 0.2747019 0 1.2009715 0.24321097 0.14257813 0.8462714 0.1662435 0.19042969 0.93254954 0.22334044 0 0.8279791 0.20980917 0 0.93236643 0.27412128 -0.19042969 0.93254954 0.22334044 -0.026611328 0.91980606 0.25588676 0 0.9041307 0.2474363 0 0.93178076 0.29853812 0.026611328 0.91980606 0.25588676 -0.026611328 0.91980606 0.25588676 0 0.93178076 0.29853812 0 0.9693648 0.25583306 0.026611328 0.91980606 0.25588676 0 0.8279791 0.20980917 -0.19042969 0.93254954 0.22334044 -0.14257813 0.8462714 0.1662435 -0.14038086 0.83623964 0.000048955375 -0.14257813 0.8462714 0.1662435 -0.24316406 0.93399656 0.017283177 -0.19042969 0.93254954 0.22334044 -0.24584961 1.0638914 0.019920383 -0.19262695 1.0734226 0.22469099 -0.33740234 1.1523396 0.11313602 -0.171875 1.2011546 0.19243012 -0.24316406 1.2011642 0.03154618 -0.23828125 1.0853415 0.054946672 -0.2770996 0.91201013 0.05550012 -0.20898438 0.9114861 0.090170205 -0.22924805 0.8328991 0.05353424 -0.22143555 0.9115518 0.019859402 -0.2770996 0.91201013 0.05550012 -0.23828125 1.0853415 0.054946672 0.23828125 1.0853415 0.054946672 0.20898438 0.9114861 0.090170205 0.2770996 0.91201013 0.05550012 0.22924805 0.8328991 0.05353424 0.22143555 0.9115518 0.019859402 0.20898438 0.9114861 0.090170205 0.171875 1.2011546 0.19243012 0.19262695 1.0734226 0.22469099 0.24316406 1.2011642 0.03154618 0.24584961 1.0638914 0.019920383 0.19262695 1.0734226 0.22469099 0.19042969 0.93254954 0.22334044 0.24584961 1.0638914 0.019920383 0.24316406 0.93399656 0.017283177 0.14038086 0.83623964 0.000048955375 0.24316406 0.93399656 0.017283177 0.14257813 0.8462714 0.1662435 0.19042969 0.93254954 0.22334044 -0.24584961 1.0638914 0.019920383 -0.33740234 1.1523396 0.11313602 -0.25170898 1.0393099 -0.089303635 -0.24316406 1.2011642 0.03154618 0.23828125 1.0853415 0.054946672 0.2770996 0.91201013 0.05550012 0.22143555 0.9115518 0.019859402 -0.25170898 1.0393099 -0.089303635 -0.20947266 0.94997406 -0.12709567 -0.24316406 0.93399656 0.017283177 -0.099121094 0.83634114 -0.104929 -0.14038086 0.83623964 0.000048955375 0 0.800596 0.000019038715 -0.14257813 0.8462714 0.1662435 0 0.8279791 0.20980917 -0.171875 1.2011546 0.19243012 0 1.2009715 0.24321097 0 1.2987874 0.14838763 0.171875 1.2011546 0.19243012 0.099121094 1.2863699 0.113307044 0.24316406 1.2011642 0.03154618 0.25170898 1.0393099 -0.089303635 0.24316406 0.93399656 0.017283177 0.20947266 0.94997406 -0.12709567 0.099121094 0.83634114 -0.104929 0 0.83634317 -0.14521103 0 0.800596 0.000019038715 -0.24316406 1.2011642 0.03154618 -0.171875 1.2011546 0.19243012 -0.099121094 1.2863699 0.113307044 0 1.2987874 0.14838763 -0.24316406 0.93399656 0.017283177 -0.36645508 1.0953304 -0.070353776 -0.25170898 1.0393099 -0.089303635 -0.24584961 1.0638914 0.019920383 0.24316406 0.93399656 0.017283177 0.25170898 1.0393099 -0.089303635 0.36645508 1.0953304 -0.070353776 0.24584961 1.0638914 0.019920383 -0.20947266 0.94997406 -0.12709567 0 0.83634317 -0.14521103 -0.099121094 0.83634114 -0.104929 0 0.800596 0.000019038715 0 0.8279791 0.20980917 0 0.800596 0.000019038715 0.14257813 0.8462714 0.1662435 0.14038086 0.83623964 0.000048955375 0 0.800596 0.000019038715 0.099121094 0.83634114 -0.104929 0.14038086 0.83623964 0.000048955375 0.24316406 0.93399656 0.017283177 0.24316406 1.2011642 0.03154618 0.24584961 1.0638914 0.019920383 0.25170898 1.0393099 -0.089303635 -0.24316406 1.2011642 0.03154618 -0.21728516 1.2012765 -0.11224905 -0.25170898 1.0393099 -0.089303635 -0.18530273 1.0632647 -0.30305564 -0.20947266 0.94997406 -0.12709567 -0.11230469 0.9914887 -0.30260438 0 0.92264533 -0.30194733 0 0.9760549 -0.49308816 0.11230469 0.9914887 -0.30260438 0.111572266 1.0663836 -0.4937823 0.18530273 1.0632647 -0.30305564 0 1.1539854 -0.4976148 0 1.2258159 -0.30738094 -0.18530273 1.0632647 -0.30305564 -0.13916016 1.1778834 -0.22685114 -0.21728516 1.2012765 -0.11224905 -0.099121094 1.2989763 -0.104535684 -0.14038086 1.2988733 0.00019814895 0 1.334761 0.00022659842 -0.099121094 1.2863699 0.113307044 0 1.2987874 0.14838763 0 1.2987874 0.14838763 0.099121094 1.2863699 0.113307044 0 1.334761 0.00022659842 0.14038086 1.2988733 0.00019814895 0.099121094 1.2989763 -0.104535684 0.21728516 1.2012765 -0.11224905 0.13916016 1.1778834 -0.22685114 0.18530273 1.0632647 -0.30305564 0 1.2258159 -0.30738094 0 1.1539854 -0.4976148 0.111572266 1.0663836 -0.4937823 0 1.0638915 -0.74010307 0 0.9760549 -0.49308816 -0.111572266 1.0663836 -0.4937823 -0.11230469 0.9914887 -0.30260438 -0.18530273 1.0632647 -0.30305564 -0.13916016 1.1778834 -0.22685114 -0.099121094 1.2989763 -0.104535684 0 1.2496903 -0.26219377 0 1.2992033 -0.14799279 0.099121094 1.2989763 -0.104535684 0 1.334761 0.00022659842 0 0.92264533 -0.30194733 0.11230469 0.9914887 -0.30260438 0.20947266 0.94997406 -0.12709567 0.18530273 1.0632647 -0.30305564 0.25170898 1.0393099 -0.089303635 0.099121094 1.2989763 -0.104535684 0.13916016 1.1778834 -0.22685114 0 1.2496903 -0.26219377 0 1.2258159 -0.30738094 -0.13916016 1.1778834 -0.22685114 -0.21728516 1.2012765 -0.11224905 -0.24316406 1.2011642 0.03154618 -0.14038086 1.2988733 0.00019814895 -0.099121094 1.2863699 0.113307044 0.099121094 1.2863699 0.113307044 0.24316406 1.2011642 0.03154618 0.14038086 1.2988733 0.00019814895 0.21728516 1.2012765 -0.11224905 0.24316406 1.2011642 0.03154618 0.25170898 1.0393099 -0.089303635 0.21728516 1.2012765 -0.11224905 0.18530273 1.0632647 -0.30305564 -0.20947266 0.94997406 -0.12709567 0 0.92264533 -0.30194733 0 0.83634317 -0.14521103 0.20947266 0.94997406 -0.12709567 0 1.0638915 -0.74010307 -0.111572266 1.0663836 -0.4937823 0 1.1539854 -0.4976148 -0.18530273 1.0632647 -0.30305564 -0.099121094 1.2989763 -0.104535684 0 1.334761 0.00022659842 0 1.2992033 -0.14799279 0.07055664 0.3984375 -0.10131836 -0.07055664 0.3984375 -0.10131836 -0.07055664 0.5086895 -0.10141778 -0.14086914 0.3984375 0.0031738281 -0.14086914 0.5087247 0.0065057874 -0.07055664 0.3984375 0.11645508 -0.07055664 0.50849426 0.1163798 0.07055664 0.3984375 0.11645508 0.07055664 0.50849426 0.1163798 0.14086914 0.5087247 0.0065057874 0.07055664 0.3984375 0.11645508 0.14086914 0.3984375 0.0031738281 0.14086914 0.5087247 0.0065057874 0.07055664 0.5086895 -0.10141778 0.14086914 0.3984375 0.0031738281 0.07055664 0.3984375 -0.10131836 0.07055664 0.5086895 -0.10141778 -0.07055664 0.5086895 -0.10141778 0 0.29052734 -0.11816406 0.075683594 0.29052734 -0.11035156 0 0.31567383 0 0.15112305 0.29052734 0 0.075683594 0.29052734 0.11035156 0.075683594 0.29052734 0.11035156 0 0.29052734 0.11816406 0 0.31567383 0 -0.075683594 0.29052734 0.11035156 -0.15112305 0.29052734 0 -0.15112305 0.29052734 0 -0.075683594 0.29052734 -0.11035156 0 0.31567383 0 0 0.29052734 -0.11816406 -0.075683594 0.29052734 -0.11035156 -0.15112305 0.29052734 0 -0.14086914 0.3984375 0.0031738281 -0.075683594 0.29052734 0.11035156 -0.07055664 0.3984375 0.11645508 0 0.29052734 0.11816406 0.07055664 0.3984375 0.11645508 0.075683594 0.29052734 0.11035156 0.14086914 0.3984375 0.0031738281 0.15112305 0.29052734 0 0.075683594 0.29052734 -0.11035156 0.14086914 0.3984375 0.0031738281 0.075683594 0.29052734 -0.11035156 0.07055664 0.3984375 -0.10131836 0 0.29052734 -0.11816406 -0.07055664 0.3984375 -0.10131836 -0.14086914 0.3984375 0.0031738281 -0.07055664 0.3984375 -0.10131836 -0.075683594 0.29052734 -0.11035156 0 0.29052734 -0.11816406 0.037597656 -0.000061676226 -0.000100231875 0.088378906 0.044630855 0.04723186 0.08984375 0.15105197 0.050384093 0.16235352 -0.000061676226 -0.000100231875 0.15063477 0.1662482 -0.00003504753 0.0925293 0.14096218 -0.06455634 0.091308594 0.22755814 -0.067050815 0.040039063 0.1662482 -0.00003504753 0.088378906 0.29981524 -0.08152348 0.03100586 0.29980403 0.000025689602 0.08300781 0.36035353 -0.000077068806 0.088378906 0.29979283 0.08157486 0.1459961 0.29980403 0.000025689602 0.091308594 0.16288596 0.057890475 0.15063477 0.1662482 -0.00003504753 0.08984375 0.15105197 0.050384093 -0.088378906 0.044630855 0.04723186 -0.037597656 -0.000061676226 -0.000100231875 -0.08984375 0.15105197 0.050384093 -0.040039063 0.1662482 -0.00003504753 -0.091308594 0.16288596 0.057890475 -0.03100586 0.29980403 0.000025689602 -0.088378906 0.29979283 0.08157486 -0.08300781 0.36035353 -0.000077068806 -0.1459961 0.29980403 0.000025689602 -0.088378906 0.29981524 -0.08152348 -0.15063477 0.1662482 -0.00003504753 -0.091308594 0.22755814 -0.067050815 -0.0925293 0.14096218 -0.06455634 -0.040039063 0.1662482 -0.00003504753 -0.037597656 -0.000061676226 -0.000100231875 0.088378906 0.29979283 0.08157486 0.03100586 0.29980403 0.000025689602 0.091308594 0.16288596 0.057890475 0.040039063 0.1662482 -0.00003504753 0.08984375 0.15105197 0.050384093 0.037597656 -0.000061676226 -0.000100231875 0.040039063 0.1662482 -0.00003504753 0.0925293 0.14096218 -0.06455634 0.037597656 -0.000061676226 -0.000100231875 0.09399414 -0.000038975413 -0.07490544 0.16235352 -0.000061676226 -0.000100231875 0.0925293 0.14096218 -0.06455634 -0.088378906 0.044630855 0.04723186 -0.08984375 0.15105197 0.050384093 -0.16235352 -0.000061676226 -0.000100231875 -0.15063477 0.1662482 -0.00003504753 -0.0925293 0.14096218 -0.06455634 -0.088378906 0.29979283 0.08157486 -0.1459961 0.29980403 0.000025689602 -0.091308594 0.16288596 0.057890475 -0.15063477 0.1662482 -0.00003504753 -0.08984375 0.15105197 0.050384093 -0.08300781 0.36035353 -0.000077068806 -0.03100586 0.29980403 0.000025689602 -0.088378906 0.29981524 -0.08152348 -0.040039063 0.1662482 -0.00003504753 -0.091308594 0.22755814 -0.067050815 -0.0925293 0.14096218 -0.06455634 -0.037597656 -0.000061676226 -0.000100231875 -0.09399414 -0.000038975413 -0.07490544 -0.16235352 -0.000061676226 -0.000100231875 -0.0925293 0.14096218 -0.06455634 -0.088378906 0.044630855 0.04723186 -0.16235352 -0.000061676226 -0.000100231875 -0.09399414 -0.00018547746 0.113814116 -0.037597656 -0.000061676226 -0.000100231875 -0.088378906 0.044630855 0.04723186 0.08300781 0.36035353 -0.000077068806 0.1459961 0.29980403 0.000025689602 0.088378906 0.29981524 -0.08152348 0.15063477 0.1662482 -0.00003504753 0.091308594 0.22755814 -0.067050815 0.16235352 -0.000061676226 -0.000100231875 0.088378906 0.044630855 0.04723186 0.09399414 -0.00018547746 0.113814116 0.037597656 -0.000061676226 -0.000100231875 0.16235352 -0.000061676226 -0.000100231875 </float_array>
          <technique_common>
            <accessor source="#positions-array" count="701" stride="3">
              <param name="X" type="float"/>
              <param name="Y" type="float"/>
              <param name="Z" type="float"/>
            </accessor>
          </technique_common>
        </source>
        <source id="texcoords">
          <float_array id="texcoords-array" count="1402">0 0 0 0 0 0 0 0 0 0 0 0 0 0 0 0 0 0 0 0 0 0 0 0 0 0 0 0 0 0 0 0 0 0 0 0 0 0 0 0 0 0 0 0 0 0 0 0 0 0 0 0 0 0 0 0 0 0 0 0 0 0 0 0 0 0 0 0 0 0 0 0 0 0 0 0 0 0 0 0 0 0 0 0 0 0 0 0 0 0 0 0 0 0 0 0 0 0 0 0 0 0 0 0 0 0 0 0 0 0 0 0 0 0 0 0 0 0 0 0 0 0 0 0 0 0 0 0 0 0 0 0 0 0 0 0 0 0 0 0 0 0 0 0 0 0 0 0 0 0 0 0 0 0 0 0 0 0 0 0 0 0 0 0 0 0 0 0 0 0 0 0 0 0 0 0 0 0 0 0 0 0 0 0 0 0 0 0 0 0 0 0 0 0 0 0 0 0 0 0 0 0 0 0 0 0 0 0 0 0 0 0 0 0 0 0 0 0 0 0 0 0 0 0 0 0 0 0 0 0 0 0 0 0 0 0 0 0 0 0 0 0 0 0 0 0 0 0 0 0 0 0 0 0 0 0 0 0 0 0 0 0 0 0 0 0 0 0 0 0 0 0 0 0 0 0 0 0 0 0 0 0 0 0 0 0 0 0 0 0 0 0 0 0 0 0 0 0 0 0 0 0 0 0 0 0 0 0 0 0 0 0 0 0 0 0 0 0 0 0 0 0 0 0 0 0 0 0 0 0 0 0 0 0 0 0 0 0 0 0 0 0 0 0 0 0 0 0 0 0 0 0 0 0 0 0 0 0 0 0 0 0 0 0 0 0 0 0 0 0 0 0 0 0 0 0 0 0 0 0 0 0 0 0 0 0 0 0 0 0 0 0 0 0 0 0 0 0 0 0 0 0 0 0 0 0 0 0 0 0 0 0 0 0 0 0 0 0 0 0 0 0 0 0 0 0 0 0 0 0 0 0 0 0 0 0 0 0 0 0 0 0 0 0 0 0 0 0 0 0 0 0 0 0 0 0 0 0 0 0 0 0 0 0 0 0 0 0 0 0 0 0 0 0 0 0 0 0 0 0 0 0 0 0 0 0 0 0 0 0 0 0 0 0 0 0 0 0 0 0 0 0 0 0 0 0 0 0 0 0 0 0 0 0 0 0 0 0 0 0 0 0 0 0 0 0 0 0 0 0 0 0 0 0 0 0 0 0 0 0 0 0 0 0 0 0 0 0 0 0 0 0 0 0 0 0 0 0 0 0 0 0 0 0 0 0 0 0 0 0 0 0 0 0 0 0 0 0 0 0 0 0 0 0 0 0 0 0 0 0 0 0 0 0 0 0 0 0 0 0 0 0 0 0 0 0 0 0 0 0 0 0 0 0 0 0 0 0 0 0 0 0 0 0 0 0 0 0 0 0 0 0 0 0 0 0 0 0 0 0 0 0 0 0 0 0 0 0 0 0 0 0 0 0 0 0 0 0 0 0 0 0 0 0 0 0 0 0 0 0 0 0 0 0 0 0 0 0 0 0 0 0 0 0 0 0 0 0 0 0 0 0 0 0 0 0 0 0 0 0 0 0 0 0 0 0 0 0 0 0 0 0 0 0 0 0 0 0 0 0 0 0 0 0 0 0 0 0 0 0 0 0 0 0 0 0 0 0 0 1 0 0 1.0390625 1 0.9277344 0 0.068359375 0 1 0 -0.04296875 1 1 1 0 0 0 0 0 0 0 0 0 0 0 0 0 0 0 0 0 0 0 0 0 0 0 0 0 0 0 0 0 0 0 0 0 0 0 0 0 0 0 0 0 0 0 0 0 0 0 0 0 0 0 0 0 0 0 0 0 0 0 0 0 0 0 0 0 0 0 0 0 0 0 0 0 0 0 0 0 0 0 0 0 0 0 0 0 0 0 0 0 0 0 0 0 0 0 0 0 0 0 0 0 0 0 0 0 0 0 0 0 0 0 0 0 0 0 0 0 0 0 0 0 0 0 0 0 0 0 0 0 0 0 0 0 0 0 0 0 0 0 0 0 0 0 0 0 0 0 0 0 0 0 0 0 0 0 0 0 0 0 0 0 0 0 0 0 0 0 0 0 0 0 0 0 0 0 0 0 0 0 0 0 0 0 0 0 0 0 0 0 0 0 0 0 0 0 0 0 0 0 0 0 0 0 0 0 0 0 0 0 0 0 0 0 0 0 0 0 0 0 0 0 0 0 0 0 0 0 0 0 0 0 0 0 0 0 0 0 0 0 0 0 0 0 0 0 0 0 0 0 0 0 0 0 0 0 0 0 0 0 0 0 0 0 0 0 0 0 0 0 0 0 0 0 0 0 0 0 0 0 0 0 0 0 0 0 0 0 0 0 0 0 0 0 0 0 0 0 0 0 0 0 0 0 0 0 0 0 0 0 0 0 0 0 0 0 0 0 0 0 0 0 0 0 0 0 0 0 0 0 0 0 0 0 0 0 0 0 0 0 0 0 0 0 0 0 0 0 0 0 0 0 0 0 0 0 0 0 0 0 0 0 0 0 0 0 0 0 0 0 0 0 0 0 0 0 0 0 0 0 0 0 0 0 0 0 0 0 0 0 0 0 0 0 0 0 0 0 0 0 0 0 0 0 0 0 0 0 0 0 0 0 0 0 0 0 0 0 0 0 0 0 0 0 0 0 0 0 0 0 0 0 0 0 0 0 0 0 0 0 0 0 0 0 0 0 0 0 0 0 0 0 0 0 0 0 0 0 0 0 0 0 0 0 0 0 0 0 0 0 0 0 0 0 0 0 0 0 0 0 0 0 0 0 0 0 0 0 0 0 0 0 0 0 0 0 0 0 0 0 0 0 0 0 0 0 0 0 0 0 0 0 0 0 0 0 0 0 0 0 0 0 0 0 0 0 0 0 0 0 0 0 0 0 0 0 0 0 0 0 0 0 0 0 0 0 0 0 0 0 0 0 0 0 0 0 0 0 0 0 0 0 0 0 0 0 0 0 0 0 0 0 0 0 0 0 0 0 0 0 0 0 0 0 0 0 0 0 0 0 0 0 0 0 0 0 0 0 0 0 0 0 0 0 0 0 0 0 0 0 0 0 0 0 0 0 0 0 0 0 0 0 0 0 0 0 0 0 0 0 0 0 0 0 0 0 0 0 0 0 0 0 0 0 0 0 0 0 0 </float_array>
          <technique_common>
            <accessor source="#texcoords-array" count="701" stride="2">
              <param name="S" type="float"/>
              <param name="T" type="float"/>
            </accessor>
          </technique_common>
        </source>
        <source id="normals">
          <float_array id="normals-array" count="2103">-0.995408 -0.09542193 0.007591335 -0.48217428 0.041147083 0.8751085 -0.48217124 0.08446718 0.8719955 0.48267767 0.052936472 0.87419677 0.44340095 0.13392168 0.8862621 0.995408 -0.09542193 0.007591335 -0.54652566 0.0013919517 -0.8374412 -0.44553965 -0.054063447 -0.8936283 0.546458 -0.008366399 -0.8374447 0.44561115 -0.026728537 -0.89482754 0.995408 -0.09542193 0.007591335 -0.44553965 -0.054063447 -0.8936283 -0.54652566 0.0013919517 -0.8374412 -0.995408 -0.09542193 0.007591335 -0.9921487 0.029918455 0.12143233 -0.48217428 0.041147083 0.8751085 0.48267767 0.052936472 0.87419677 0.9921487 0.029918455 0.12143233 0.995408 -0.09542193 0.007591335 0.546458 -0.008366399 -0.8374447 0.107486315 0.9942064 -0.0005074786 0.17561279 0.01274307 -0.98437685 -0.03541159 0.030300321 -0.99891335 0.16396287 -0.9864609 -0.0033110236 -0.19730368 -0.9803424 -0.0002615817 -0.015362521 0.0048988615 0.99987 -1 0.0000011041392 0.00022535758 -0.3067686 0.9517841 -0.0003911359 -0.03541159 0.030300321 -0.99891335 0.107486315 0.9942064 -0.0005074786 -0.17585266 0.012743521 -0.984334 -0.1074838 0.9942067 -0.0004813375 0.035168193 0.030300759 -0.99892193 0.30676582 0.9517849 -0.0004659733 1 -0.0000000901846 -0.000018406903 0.015606187 0.0048988434 0.9998662 0.19729984 -0.98034316 -0.00030960742 -0.16396268 -0.9864611 -0.0032709453 0.035168193 0.030300759 -0.99892193 -0.17585266 0.012743521 -0.984334 0.16396287 -0.9864609 -0.0033110236 0.16606428 0.014596423 0.9860069 -0.015362521 0.0048988615 0.99987 0.107486315 0.9942064 -0.0005074786 -0.3067686 0.9517841 -0.0003911359 0.30676582 0.9517849 -0.0004659733 -0.1074838 0.9942067 -0.0004813375 0.015606187 0.0048988434 0.9998662 -0.16582397 0.014596755 0.9860473 -0.16396268 -0.9864611 -0.0032709453 -0.19730368 -0.9803424 -0.0002615817 -1 0.0000011041392 0.00022535758 -0.03541159 0.030300321 -0.99891335 0.19729984 -0.98034316 -0.00030960742 0.035168193 0.030300759 -0.99892193 1 -0.0000000901846 -0.000018406903 -0.16582397 0.014596755 0.9860473 -0.1074838 0.9942067 -0.0004813375 0.015606187 0.0048988434 0.9998662 -0.048458014 0.98982316 -0.13379818 0.009060058 0.0048992387 0.99994695 -0.4655487 0.865315 0.18572655 -0.47930187 -0.1051382 0.87132984 -0.98186314 -0.18959 -0.00058756437 -0.18579412 -0.96432304 0.18857788 -0.31969777 -0.07109857 -0.9448483 0.016004408 -0.99206156 -0.12473084 -0.090997 -0.0009695997 -0.9958507 -0.035192594 -0.0009872832 -0.99938005 -0.048458014 0.98982316 -0.13379818 -0.1074838 0.9942067 -0.0004813375 0.17561279 0.01274307 -0.98437685 0.107486315 0.9942064 -0.0005074786 0.03494905 -0.0009873785 -0.99938864 0.048458014 0.98982316 -0.13379818 0.090997 -0.0009695997 -0.9958507 0.32147434 -0.071059234 -0.9442483 -0.016004408 -0.99206156 -0.12473084 0.18579412 -0.96432304 0.18857788 -0.009060058 0.0048992387 0.99994695 0.47930187 -0.1051382 0.87132984 0.46531042 0.8650352 0.18761751 0.98186314 -0.18959 -0.00058756437 0.32147434 -0.071059234 -0.9442483 0.18579412 -0.96432304 0.18857788 0.17561279 0.01274307 -0.98437685 0.03494905 -0.0009873785 -0.99938864 0.16396287 -0.9864609 -0.0033110236 -0.016004408 -0.99206156 -0.12473084 -0.015362521 0.0048988615 0.99987 -0.009060058 0.0048992387 0.99994695 0.048458014 0.98982316 -0.13379818 -0.47930187 -0.1051382 0.87132984 -0.18579412 -0.96432304 0.18857788 0.009060058 0.0048992387 0.99994695 0.016004408 -0.99206156 -0.12473084 0.015606187 0.0048988434 0.9998662 -0.16396268 -0.9864611 -0.0032709453 -0.16582397 0.014596755 0.9860473 -0.98186314 -0.18959 -0.00058756437 -0.4655487 0.865315 0.18572655 -0.31969777 -0.07109857 -0.9448483 -0.048458014 0.98982316 -0.13379818 -0.090997 -0.0009695997 -0.9958507 0.32147434 -0.071059234 -0.9442483 0.048458014 0.98982316 -0.13379818 0.46531042 0.8650352 0.18761751 -0.009060058 0.0048992387 0.99994695 0.16396287 -0.9864609 -0.0033110236 -0.015362521 0.0048988615 0.99987 0.16606428 0.014596423 0.9860069 0.107486315 0.9942064 -0.0005074786 0.016004408 -0.99206156 -0.12473084 -0.035192594 -0.0009872832 -0.99938005 -0.16396268 -0.9864611 -0.0032709453 -0.17585266 0.012743521 -0.984334 0.03494905 -0.0009873785 -0.99938864 0.090997 -0.0009695997 -0.9958507 -0.016004408 -0.99206156 -0.12473084 0.107486315 0.9942064 -0.0005074786 -0.015362521 0.0048988615 0.99987 0.048458014 0.98982316 -0.13379818 0.18579412 -0.96432304 0.18857788 0.98186314 -0.18959 -0.00058756437 0.47930187 -0.1051382 0.87132984 -0.035192594 -0.0009872832 -0.99938005 -0.1074838 0.9942067 -0.0004813375 -0.17585266 0.012743521 -0.984334 0 0.000985585 0.9999995 -1 0 0 0 -0.15734401 0.9875439 -0.93256956 -0.36099035 -0.0001826226 0 -0.999988 0.00489944 0 -0.15909669 -0.987263 0.93256956 -0.36099035 -0.0001826226 1 0 0 0 -0.15734401 0.9875439 0 0.000985585 0.9999995 -0.017560728 0.9989644 -0.041973002 -0.017560728 0.9989644 -0.041973002 -0.017560728 0.9989644 -0.041973002 -0.017560728 0.9989644 -0.041973002 1 0 0 0 -0.15909669 -0.987263 0 -0.0009932292 -0.9999995 -1 0 0 0 -0.15734401 0.9875439 0 -0.999988 0.00489944 0.93256956 -0.36099035 -0.0001826226 -1 0 0 0 -0.15909669 -0.987263 -0.93256956 -0.36099035 -0.0001826226 0 0.000985585 0.9999995 -1 0 0 0 -0.15734401 0.9875439 -0.93256956 -0.36099035 -0.0001826226 0 -0.999988 0.00489944 0 -0.15909669 -0.987263 0.93256956 -0.36099035 -0.0001826226 1 0 0 0 -0.15734401 0.9875439 0 0.000985585 0.9999995 -0.017560728 0.9989644 -0.041973002 -0.017560728 0.9989644 -0.041973002 -0.017560728 0.9989644 -0.041973002 -0.017560728 0.9989644 -0.041973002 1 0 0 0 -0.15909669 -0.987263 0 -0.0009932292 -0.9999995 -1 0 0 0 -0.15734401 0.9875439 0 -0.999988 0.00489944 0.93256956 -0.36099035 -0.0001826226 -1 0 0 0 -0.15909669 -0.987263 -0.93256956 -0.36099035 -0.0001826226 -0.7070059 0.008255477 -0.70715946 -0.70704234 0.009324887 0.70710975 -0.70704234 0.009324887 0.70710975 0.7070531 0.0015112258 0.7071588 0.7070531 0.0015112258 0.7071588 0.7070491 0.00044222258 -0.70716435 0.7070491 0.00044222258 -0.70716435 -0.7070059 0.008255477 -0.70715946 -0.7070059 0.008255477 -0.70715946 -0.70704234 0.009324887 0.70710975 0.93387896 0.35758922 0.00020202613 0 0.3015042 0.95346487 0.45702225 -0.72216696 0.51923555 -0.56055206 -0.52625364 0.63940483 -0.45645827 -0.72245914 -0.5193252 -0.93387896 0.35758922 0.00020202613 0 0.30216467 -0.9532557 -0.017560728 0.9989644 -0.041973002 0.93387896 0.35758922 0.00020202613 0 0.3015042 0.95346487 -0.47032428 0.86932415 0.15188996 0 0.86875236 0.49524677 -0.017560728 0.9989644 -0.041973002 0.47249654 0.86778724 0.15392323 0.2908753 0.86885005 -0.40061346 0 0.30216467 -0.9532557 0.93387896 0.35758922 0.00020202613 0.5608828 -0.5269634 -0.6385296 0.45702225 -0.72216696 0.51923555 -0.45645827 -0.72245914 -0.5193252 0 -0.999988 0.00489944 0 -0.999988 0.00489944 0 -0.999988 0.00489944 0 -0.999988 0.00489944 0.2908753 0.86885005 -0.40061346 -0.2908753 0.86885005 -0.40061346 -0.017560728 0.9989644 -0.041973002 -0.47032428 0.86932415 0.15188996 -0.017560728 0.9989644 -0.041973002 -0.93387896 0.35758922 0.00020202613 0 0.3015042 0.95346487 -0.56055206 -0.52625364 0.63940483 0 -0.999988 0.00489944 0 -0.999988 0.00489944 0 -0.999988 0.00489944 -0.45645827 -0.72245914 -0.5193252 0 0.30216467 -0.9532557 0.5608828 -0.5269634 -0.6385296 -0.33354184 -0.71119016 -0.61883634 -0.21680479 -0.6307269 -0.74510354 -0.09368909 -0.995601 0.00097360945 -0.019514373 0.12395468 -0.99209595 1 0 0 0.16785467 0.9858113 -0.0009257601 -0.019533431 0.12598616 0.99183965 -0.019514373 0.12395468 -0.99209595 0.33376357 -0.71145546 0.6184117 0.21695137 -0.6297101 0.7459204 0.09368909 -0.995601 0.00097360945 -0.019533431 0.12598616 0.99183965 -1 0 0 -0.16785467 0.9858113 -0.0009257601 -0.019514373 0.12395468 -0.99209595 -0.019533431 0.12598616 0.99183965 0.8044 -0.28375176 -0.5219439 0.48192516 0.7786013 -0.4019057 0.5882805 -0.042957168 0.80751514 0 0.5351966 0.8447275 -0.5882805 -0.042957168 0.80751514 -0.48192516 0.7786013 -0.4019057 -0.8044 -0.28375176 -0.5219439 -0.1777096 -0.76476866 -0.61931264 0.99501634 0.099710666 -0.0004885323 0 -0.29561254 -0.9553079 0 0.535143 -0.8447615 -0.99501634 0.099710666 -0.0004885323 -0.7291762 0.68432575 0.00055756414 0 0.5351966 0.8447275 1 0 0 -0.019533431 0.12598616 0.99183965 -0.09368909 -0.995601 0.00097360945 -0.21695137 -0.6297101 0.7459204 -0.33376357 -0.71145546 0.6184117 0 0.5351966 0.8447275 0.3942234 0.05914694 0.9171094 0 0.06544376 0.99785626 0 -0.5388064 0.84242964 -0.3942234 0.05914694 0.9171094 -0.17777301 -0.7648339 0.6192138 0 -0.2962684 0.9551047 0.99501634 0.099710666 -0.0004885323 0 0.5351966 0.8447275 0.7291762 0.68432575 0.00055756414 -0.28693363 0.47813663 -0.830093 -0.6152083 0.6286024 -0.47579166 -0.65442383 0.7561279 0.00020298494 -0.61575836 0.6279641 0.47592303 -0.28707588 0.47869512 0.82972187 0 0.30216467 -0.9532557 -0.48192516 0.7786013 -0.4019057 0 0.7536998 -0.6572189 0 0.5351966 0.8447275 0.48192516 0.7786013 -0.4019057 0.88062525 -0.052374486 0.47090986 -0.88062525 -0.052374486 0.47090986 0 -0.53974104 -0.84183115 0 -0.0009932292 -0.9999995 0.88062525 -0.052374486 0.47090986 0.28693363 0.47813663 -0.830093 0.65442383 0.7561279 0.00020298494 0.6152083 0.6286024 -0.47579166 0.61575836 0.6279641 0.47592303 0 0.535143 -0.8447615 0 0.06344424 -0.99798536 0.39474937 0.058051944 -0.916953 0 -0.53974104 -0.84183115 0.33354184 -0.71119016 -0.61883634 0.09368909 -0.995601 0.00097360945 0.21680479 -0.6307269 -0.74510354 -0.019514373 0.12395468 -0.99209595 0 0.535143 -0.8447615 -0.39474937 0.058051944 -0.916953 0 0.06344424 -0.99798536 0 -0.53974104 -0.84183115 0.17777301 -0.7648339 0.6192138 -0.99501634 0.099710666 -0.0004885323 0 -0.2962684 0.9551047 0 0.5351966 0.8447275 -0.017560728 0.9989644 -0.041973002 -0.017560728 0.9989644 -0.041973002 -0.017560728 0.9989644 -0.041973002 -0.017560728 0.9989644 -0.041973002 0 -0.999988 0.00489944 0 -0.999988 0.00489944 0 -0.999988 0.00489944 0 -0.999988 0.00489944 0 -0.999988 0.00489944 0 -0.999988 0.00489944 0 -0.999988 0.00489944 0.65442383 0.7561279 0.00020298494 0.28707588 0.47869512 0.82972187 0.61575836 0.6279641 0.47592303 0 0.535143 -0.8447615 0.99501634 0.099710666 -0.0004885323 0.7291762 0.68432575 0.00055756414 -0.3942234 0.05914694 0.9171094 0 0.5351966 0.8447275 0 0.06544376 0.99785626 -1 0 0 -0.019514373 0.12395468 -0.99209595 0.09368909 -0.995601 0.00097360945 -0.99501634 0.099710666 -0.0004885323 0.1777096 -0.76476866 -0.61931264 0 -0.29561254 -0.9553079 0 0.7536998 -0.6572189 0.48192516 0.7786013 -0.4019057 0 0.30216467 -0.9532557 0.44561115 -0.026728537 -0.89482754 -0.44553965 -0.054063447 -0.8936283 -0.3454649 0.39491594 -0.8512904 -0.99438834 0.10512216 -0.011879966 -0.69724905 0.7162951 -0.027658835 -0.32008165 0.52845526 0.7863096 0 0.9998434 -0.017695684 0.3828602 0.56770945 0.72878253 0.69724905 0.7162951 -0.027658835 0.99438834 0.10512216 -0.011879966 0.41231486 0.45052326 -0.79184926 0.44561115 -0.026728537 -0.89482754 -0.3454649 0.39491594 -0.8512904 -0.44553965 -0.054063447 -0.8936283 -0.995408 -0.09542193 0.007591335 -0.99438834 0.10512216 -0.011879966 -0.48217124 0.08446718 0.8719955 -0.32008165 0.52845526 0.7863096 0.44340095 0.13392168 0.8862621 0.3828602 0.56770945 0.72878253 0.99438834 0.10512216 -0.011879966 0.69724905 0.7162951 -0.027658835 0.41231486 0.45052326 -0.79184926 0 0.9998434 -0.017695684 -0.3454649 0.39491594 -0.8512904 -0.69724905 0.7162951 -0.027658835 0.44340095 0.13392168 0.8862621 0.995408 -0.09542193 0.007591335 0.99438834 0.10512216 -0.011879966 0.44561115 -0.026728537 -0.89482754 -0.95115626 0.3023456 -0.062361162 -0.839689 -0.54292685 -0.012358692 -0.89224315 -0.21040317 0.39954063 0.95115626 0.3023456 -0.062361162 0.93128955 0.18929428 0.3112353 0.839689 -0.54292685 -0.012358692 0 -0.007687816 0.99997044 0 -0.007687816 0.99997044 0.25217083 -0.007867745 0.9676508 0.25217083 -0.007867745 0.9676508 -0.25217083 -0.007867745 0.9676508 0 -0.007687816 0.99997044 -0.25217083 -0.007867745 0.9676508 0 -0.007687816 0.99997044 0 0.54067546 0.8412313 -0.3885291 0.6307412 0.6717222 0 0.22072738 0.97533554 -0.5677079 -0.05163619 0.821609 -0.050806835 -0.21885957 0.9744327 -0.6914499 -0.3516881 0.6310409 0.6914499 -0.3516881 0.6310409 0.69343877 0.09414451 0.71433854 -0.050806835 -0.21885957 0.9744327 0 0.22072738 0.97533554 0.69343877 0.09414451 0.71433854 0.46683747 0.5627257 0.6822042 0 0.22072738 0.97533554 0 0.54067546 0.8412313 0.47657102 -0.8442188 0.24530524 0.6914499 -0.3516881 0.6310409 0 -0.7866003 0.6174625 -0.050806835 -0.21885957 0.9744327 -0.6914499 -0.3516881 0.6310409 -0.3456933 -0.8253943 0.44634113 0 -0.8795635 0.47578153 0 -0.8795635 0.47578153 0.3456933 -0.8253943 0.44634113 -0.8127535 0.4379788 0.3841957 0 0.7518164 0.6593725 0 0.7518164 0.6593725 0.8127535 0.4379788 0.3841957 0 -0.7866003 0.6174625 -0.6914499 -0.3516881 0.6310409 -0.47657102 -0.8442188 0.24530524 -0.48682708 -0.870445 -0.07297149 -0.47657102 -0.8442188 0.24530524 -0.839689 -0.54292685 -0.012358692 -0.6914499 -0.3516881 0.6310409 -0.89224315 -0.21040317 0.39954063 -0.5677079 -0.05163619 0.821609 -0.9547144 0.023258187 0.29661334 -0.3885291 0.6307412 0.6717222 -0.6972907 0.7167755 -0.004307788 -0.97456336 0.2190187 0.047508076 -0.9822549 -0.18131615 0.04795534 0.050806835 -0.21885957 0.9744327 -0.021503374 -0.98620266 -0.16414005 -0.042986136 -0.18565467 -0.9816744 -0.9822549 -0.18131615 0.04795534 -0.97456336 0.2190187 0.047508076 0.97456336 0.2190187 0.047508076 -0.050806835 -0.21885957 0.9744327 0.9822549 -0.18131615 0.04795534 -0.021503374 -0.98620266 -0.16414005 0.042986136 -0.18565467 -0.9816744 -0.050806835 -0.21885957 0.9744327 0.46683747 0.5627257 0.6822042 0.69343877 0.09414451 0.71433854 0.8980725 0.41284168 0.15174843 0.93128955 0.18929428 0.3112353 0.69343877 0.09414451 0.71433854 0.6914499 -0.3516881 0.6310409 0.93128955 0.18929428 0.3112353 0.839689 -0.54292685 -0.012358692 0.48682708 -0.870445 -0.07297149 0.839689 -0.54292685 -0.012358692 0.47657102 -0.8442188 0.24530524 0.6914499 -0.3516881 0.6310409 -0.89224315 -0.21040317 0.39954063 -0.9547144 0.023258187 0.29661334 -0.95835406 -0.12061452 -0.2588623 -0.6972907 0.7167755 -0.004307788 0.97456336 0.2190187 0.047508076 0.9822549 -0.18131615 0.04795534 0.042986136 -0.18565467 -0.9816744 -0.95835406 -0.12061452 -0.2588623 -0.65995634 -0.60211056 -0.44935566 -0.839689 -0.54292685 -0.012358692 -0.44148386 -0.82258624 -0.35839063 -0.48682708 -0.870445 -0.07297149 0 -0.99924076 -0.038959682 -0.47657102 -0.8442188 0.24530524 0 -0.7866003 0.6174625 -0.3885291 0.6307412 0.6717222 0 0.54067546 0.8412313 0 0.8490964 0.52823794 0.46683747 0.5627257 0.6822042 0.40070182 0.8580389 0.3212589 0.8980725 0.41284168 0.15174843 0.97853625 -0.05392926 -0.19889292 0.839689 -0.54292685 -0.012358692 0.65995634 -0.60211056 -0.44935566 0.44148386 -0.82258624 -0.35839063 0 -0.8329802 -0.55330276 0 -0.99924076 -0.038959682 -0.6972907 0.7167755 -0.004307788 -0.3885291 0.6307412 0.6717222 -0.40070182 0.8580389 0.3212589 0 0.8490964 0.52823794 -0.839689 -0.54292685 -0.012358692 -0.95115626 0.3023456 -0.062361162 -0.03123928 0.26363647 -0.96411616 -0.89224315 -0.21040317 0.39954063 0.839689 -0.54292685 -0.012358692 0.03123928 0.26363647 -0.96411616 0.95115626 0.3023456 -0.062361162 0.93128955 0.18929428 0.3112353 -0.65995634 -0.60211056 -0.44935566 0 -0.8329802 -0.55330276 -0.44148386 -0.82258624 -0.35839063 0 -0.99924076 -0.038959682 0 -0.7866003 0.6174625 0 -0.99924076 -0.038959682 0.47657102 -0.8442188 0.24530524 0.48682708 -0.870445 -0.07297149 0 -0.99924076 -0.038959682 0.44148386 -0.82258624 -0.35839063 0.48682708 -0.870445 -0.07297149 0.839689 -0.54292685 -0.012358692 0.8980725 0.41284168 0.15174843 0.93128955 0.18929428 0.3112353 0.97853625 -0.05392926 -0.19889292 -0.6972907 0.7167755 -0.004307788 -0.77173924 0.5450706 -0.32759207 -0.95835406 -0.12061452 -0.2588623 -0.8645635 0.1949655 -0.46316132 -0.65995634 -0.60211056 -0.44935566 -0.5785908 -0.7376147 -0.34807655 0 -0.90767235 -0.41967958 0 -0.9461488 -0.32373196 0.5785908 -0.7376147 -0.34807655 0.9007622 -0.19462584 -0.38826305 0.86534 0.19516617 -0.46162415 0 0.9450701 -0.3268678 0 0.8569646 -0.5153753 -0.8645635 0.1949655 -0.46316132 -0.5370191 0.67061925 -0.5117424 -0.77173924 0.5450706 -0.32759207 -0.37307858 0.8612553 -0.34503865 -0.50554 0.8627615 0.00847768 0 0.9996802 0.02528835 -0.40070182 0.8580389 0.3212589 0 0.8490964 0.52823794 0 0.8490964 0.52823794 0.40070182 0.8580389 0.3212589 0 0.9996802 0.02528835 0.50554 0.8627615 0.00847768 0.37307858 0.8612553 -0.34503865 0.77173924 0.5450706 -0.32759207 0.5370191 0.67061925 -0.5117424 0.86534 0.19516617 -0.46162415 0 0.8569646 -0.5153753 0 0.9450701 -0.3268678 0.9007622 -0.19462584 -0.38826305 0 0.0006079318 -0.9999998 0 -0.9461488 -0.32373196 -0.9007622 -0.19462584 -0.38826305 -0.5785908 -0.7376147 -0.34807655 -0.8645635 0.1949655 -0.46316132 -0.5370191 0.67061925 -0.5117424 -0.37307858 0.8612553 -0.34503865 0 0.87280273 -0.48807317 0 0.9487348 -0.31607324 0.37307858 0.8612553 -0.34503865 0 0.9996802 0.02528835 0 -0.90767235 -0.41967958 0.5785908 -0.7376147 -0.34807655 0.65995634 -0.60211056 -0.44935566 0.86534 0.19516617 -0.46162415 0.97853625 -0.05392926 -0.19889292 0.37307858 0.8612553 -0.34503865 0.5370191 0.67061925 -0.5117424 0 0.87280273 -0.48807317 0 0.8569646 -0.5153753 -0.5370191 0.67061925 -0.5117424 -0.77173924 0.5450706 -0.32759207 -0.6972907 0.7167755 -0.004307788 -0.50554 0.8627615 0.00847768 -0.40070182 0.8580389 0.3212589 0.40070182 0.8580389 0.3212589 0.8980725 0.41284168 0.15174843 0.50554 0.8627615 0.00847768 0.77173924 0.5450706 -0.32759207 0.8980725 0.41284168 0.15174843 0.97853625 -0.05392926 -0.19889292 0.77173924 0.5450706 -0.32759207 0.86534 0.19516617 -0.46162415 -0.65995634 -0.60211056 -0.44935566 0 -0.90767235 -0.41967958 0 -0.8329802 -0.55330276 0.65995634 -0.60211056 -0.44935566 0 0.0006079318 -0.9999998 -0.9007622 -0.19462584 -0.38826305 0 0.9450701 -0.3268678 -0.8645635 0.1949655 -0.46316132 -0.37307858 0.8612553 -0.34503865 0 0.9996802 0.02528835 0 0.9487348 -0.31607324 0.32617497 0.060547452 -0.9433684 -0.3945388 0.072267 -0.9160331 -0.54652566 0.0013919517 -0.8374412 -0.9937048 0.04294991 -0.10347024 -0.9921487 0.029918455 0.12143233 -0.499482 -0.0078044063 0.8662891 -0.48217428 0.041147083 0.8751085 0.42757538 -0.005857197 0.9039607 0.48267767 0.052936472 0.87419677 0.9921487 0.029918455 0.12143233 0.42757538 -0.005857197 0.9039607 0.9937048 0.04294991 -0.10347024 0.9921487 0.029918455 0.12143233 0.546458 -0.008366399 -0.8374447 0.9937048 0.04294991 -0.10347024 0.32617497 0.060547452 -0.9433684 0.546458 -0.008366399 -0.8374447 -0.54652566 0.0013919517 -0.8374412 0 -0.9783421 0.20699453 -0.09376914 -0.98262244 0.16018894 0 -1 0 -0.16408221 -0.9864467 0 -0.09376914 -0.98262244 -0.16018894 -0.09376914 -0.98262244 -0.16018894 0 -0.9783421 -0.20699453 0 -1 0 0.09376914 -0.98262244 -0.16018894 0.16408221 -0.9864467 0 0.16408221 -0.9864467 0 0.09376914 -0.98262244 0.16018894 0 -1 0 0 -0.9783421 0.20699453 -0.6364796 0.09566718 -0.76533747 -0.99560016 0.093703546 0 -0.9937048 0.04294991 -0.10347024 -0.64820385 0.0058572637 0.76144433 -0.499482 -0.0078044063 0.8662891 0 -0.02928431 0.99957114 0.42757538 -0.005857197 0.9039607 0.64820385 0.0058572637 0.76144433 0.9937048 0.04294991 -0.10347024 0.99560016 0.093703546 0 0.6364796 0.09566718 -0.76533747 0.9937048 0.04294991 -0.10347024 0.6364796 0.09566718 -0.76533747 0.32617497 0.060547452 -0.9433684 0 0.10935977 -0.9940022 -0.3945388 0.072267 -0.9160331 -0.9937048 0.04294991 -0.10347024 -0.3945388 0.072267 -0.9160331 -0.6364796 0.09566718 -0.76533747 0 0.10935977 -0.9940022 -0.92048585 -0.3619498 0.14730275 -0.093682654 -0.028886728 0.99518293 -0.07426622 -0.18073834 0.9807233 0.9199941 -0.34430322 0.18725948 0.99014914 -0.09172842 -0.105785325 -0.035196893 0.030996187 -0.9988996 -0.019546416 -0.11739398 -0.99289304 -0.98837745 -0.11315684 -0.10151611 -0.017569339 0.25413013 -0.96701044 -0.95653296 0.23729217 0.16952029 -0.037081286 0.9993122 -0.00024824412 -0.019556766 0.4442914 0.89566886 0.9263368 0.32774746 0.18569258 -0.03711013 -0.26409543 0.96378237 0.99014914 -0.09172842 -0.105785325 -0.07426622 -0.18073834 0.9807233 0.093682654 -0.028886728 0.99518293 0.9199941 -0.34430322 0.18725948 0.07426622 -0.18073834 0.9807233 0.99014914 -0.09172842 -0.105785325 0.03711013 -0.26409543 0.96378237 0.95653296 0.23729217 0.16952029 -0.019556766 0.4442914 0.89566886 0.037081286 0.9993122 -0.00024824412 -0.9263368 0.32774746 0.18569258 -0.017569339 0.25413013 -0.96701044 -0.98837745 -0.11315684 -0.10151611 -0.019546416 -0.11739398 -0.99289304 0.035196893 0.030996187 -0.9988996 0.99014914 -0.09172842 -0.105785325 0.9199941 -0.34430322 0.18725948 -0.019556766 0.4442914 0.89566886 -0.95653296 0.23729217 0.16952029 -0.03711013 -0.26409543 0.96378237 -0.98837745 -0.11315684 -0.10151611 -0.07426622 -0.18073834 0.9807233 -0.92048585 -0.3619498 0.14730275 -0.98837745 -0.11315684 -0.10151611 -0.035196893 0.030996187 -0.9988996 -0.92048585 -0.3619498 0.14730275 -0.03905104 -0.57890344 -0.81446046 0.9199941 -0.34430322 0.18725948 -0.035196893 0.030996187 -0.9988996 0.093682654 -0.028886728 0.99518293 0.07426622 -0.18073834 0.9807233 -0.92048585 -0.3619498 0.14730275 -0.98837745 -0.11315684 -0.10151611 0.035196893 0.030996187 -0.9988996 -0.019556766 0.4442914 0.89566886 -0.9263368 0.32774746 0.18569258 0.03711013 -0.26409543 0.96378237 -0.98837745 -0.11315684 -0.10151611 0.07426622 -0.18073834 0.9807233 0.037081286 0.9993122 -0.00024824412 0.95653296 0.23729217 0.16952029 -0.017569339 0.25413013 -0.96701044 0.99014914 -0.09172842 -0.105785325 -0.019546416 -0.11739398 -0.99289304 0.035196893 0.030996187 -0.9988996 0.9199941 -0.34430322 0.18725948 0.03905104 -0.57890344 -0.81446046 -0.92048585 -0.3619498 0.14730275 0.035196893 0.030996187 -0.9988996 0.099567205 0.82291585 0.559371 -0.92048585 -0.3619498 0.14730275 0.17373285 0.17577912 0.9689781 0.9199941 -0.34430322 0.18725948 0.099567205 0.82291585 0.559371 -0.037081286 0.9993122 -0.00024824412 0.9263368 0.32774746 0.18569258 -0.017569339 0.25413013 -0.96701044 0.99014914 -0.09172842 -0.105785325 -0.019546416 -0.11739398 -0.99289304 0.9199941 -0.34430322 0.18725948 -0.099567205 0.82291585 0.559371 -0.17373285 0.17577912 0.9689781 -0.92048585 -0.3619498 0.14730275 0.9199941 -0.34430322 0.18725948 </float_array>
          <technique_common>
            <accessor source="#normals-array" count="701" stride="3">
              <param name="X" type="float"/>
              <param name="Y" type="float"/>
              <param name="Z" type="float"/>
            </accessor>
          </technique_common>
        </source>
        <vertices id="vertices">
          <input semantic="POSITION" source="#positions"/>
          <input semantic="TEXCOORD" source="#texcoords"/>
          <input semantic="NORMAL" source="#normals"/>
        </vertices>
        <polylist material="material0" count="12">
          <input semantic="VERTEX" source="#vertices" offset="0"/>
          <vcount>3 3 3 3 3 3 3 3 3 3 3 3 </vcount>
          <p>0 1 2 1 3 2 2 3 4 3 5 4 6 7 8 7 9 8 8 9 10 11 12 13 12 14 13 13 14 15 16 17 18 17 19 18 </p>
        </polylist>
        <polylist material="material0" count="24">
          <input semantic="VERTEX" source="#vertices" offset="0"/>
          <vcount>3 3 3 3 3 3 3 3 3 3 3 3 3 3 3 3 3 3 3 3 3 3 3 3 </vcount>
          <p>20 21 22 21 23 22 22 23 24 23 25 24 24 25 26 25 27 26 26 27 28 27 29 28 30 31 32 31 33 32 32 33 34 33 35 34 34 35 36 35 37 36 36 37 38 37 39 38 40 41 42 41 43 42 42 43 44 45 46 47 46 48 47 47 48 49 50 51 52 53 54 55 </p>
        </polylist>
        <polylist material="material0" count="48">
          <input semantic="VERTEX" source="#vertices" offset="0"/>
          <vcount>3 3 3 3 3 3 3 3 3 3 3 3 3 3 3 3 3 3 3 3 3 3 3 3 3 3 3 3 3 3 3 3 3 3 3 3 3 3 3 3 3 3 3 3 3 3 3 3 </vcount>
          <p>56 57 58 57 59 58 58 59 60 59 61 60 60 61 62 61 63 62 62 63 64 63 65 64 64 65 66 65 67 66 66 67 68 67 69 68 68 69 70 71 72 73 72 74 73 73 74 75 74 76 75 75 76 77 76 78 77 77 78 79 78 80 79 79 80 81 80 82 81 81 82 83 82 84 83 85 86 87 86 88 87 87 88 89 88 90 89 89 90 91 92 93 94 93 95 94 94 95 96 95 97 96 96 97 98 99 100 101 100 102 101 101 102 103 104 105 106 105 107 106 108 109 110 109 111 110 112 113 114 113 115 114 116 117 118 119 120 121 122 123 124 125 126 127 </p>
        </polylist>
        <polylist material="material3" count="14">
          <input semantic="VERTEX" source="#vertices" offset="0"/>
          <vcount>3 3 3 3 3 3 3 3 3 3 3 3 3 3 </vcount>
          <p>128 129 130 129 131 130 130 131 132 131 133 132 132 133 134 133 135 134 134 135 136 135 137 136 138 139 140 139 141 140 142 143 144 143 145 144 146 147 148 149 150 151 </p>
        </polylist>
        <polylist material="material4" count="14">
          <input semantic="VERTEX" source="#vertices" offset="0"/>
          <vcount>3 3 3 3 3 3 3 3 3 3 3 3 3 3 </vcount>
          <p>152 153 154 153 155 154 154 155 156 155 157 156 156 157 158 157 159 158 158 159 160 159 161 160 162 163 164 163 165 164 166 167 168 167 169 168 170 171 172 173 174 175 </p>
        </polylist>
        <polylist material="material3" count="30">
          <input semantic="VERTEX" source="#vertices" offset="0"/>
          <vcount>3 3 3 3 3 3 3 3 3 3 3 3 3 3 3 3 3 3 3 3 3 3 3 3 3 3 3 3 3 3 </vcount>
          <p>176 177 178 177 179 178 178 179 180 179 181 180 180 181 182 181 183 182 182 183 184 183 185 184 186 187 188 187 189 188 188 189 190 189 191 190 190 191 192 191 193 192 192 193 194 193 195 194 196 197 198 197 199 198 198 199 200 201 202 203 202 204 203 203 204 205 206 207 208 207 209 208 210 211 212 211 213 212 214 215 216 215 217 216 218 219 220 221 222 223 </p>
        </polylist>
        <polylist material="material4" count="59">
          <input semantic="VERTEX" source="#vertices" offset="0"/>
          <vcount>3 3 3 3 3 3 3 3 3 3 3 3 3 3 3 3 3 3 3 3 3 3 3 3 3 3 3 3 3 3 3 3 3 3 3 3 3 3 3 3 3 3 3 3 3 3 3 3 3 3 4 4 3 3 3 3 3 3 3 </vcount>
          <p>224 225 226 225 227 226 226 227 228 227 229 228 228 229 230 229 231 230 232 233 234 233 235 234 234 235 236 235 237 236 236 237 238 237 239 238 240 241 242 241 243 242 242 243 244 243 245 244 244 245 246 247 248 249 248 250 249 249 250 251 250 252 251 251 252 253 254 255 256 255 257 256 256 257 258 259 260 261 260 262 261 261 262 263 264 265 266 265 267 266 266 267 268 269 270 271 270 272 271 271 272 273 274 275 276 275 277 276 276 277 278 279 280 281 280 282 281 281 282 283 284 285 286 285 287 286 288 289 290 289 291 290 292 293 294 293 295 294 296 297 298 297 299 298 300 301 302 301 303 302 304 305 306 307 308 309 310 311 312 313 314 315 316 317 318 319 320 321 322 323 324 325 326 327 328 329 330 331 332 </p>
        </polylist>
        <polylist material="material0" count="22">
          <input semantic="VERTEX" source="#vertices" offset="0"/>
          <vcount>3 3 3 3 3 3 3 3 3 3 3 3 3 3 3 3 3 3 3 3 3 3 </vcount>
          <p>333 334 335 334 336 335 335 336 337 336 338 337 337 338 339 338 340 339 339 340 341 340 342 341 341 342 343 342 344 343 343 344 345 346 347 348 347 349 348 348 349 350 349 351 350 350 351 352 351 353 352 354 355 356 355 357 356 356 357 358 359 360 361 360 362 361 </p>
        </polylist>
        <polylist material="material0" count="2">
          <input semantic="VERTEX" source="#vertices" offset="0"/>
          <vcount>3 3 </vcount>
          <p>363 364 365 366 367 368 </p>
        </polylist>
        <polylist material="material1" count="2">
          <input semantic="VERTEX" source="#vertices" offset="0"/>
          <vcount>3 3 </vcount>
          <p>369 370 371 370 372 371 </p>
        </polylist>
        <polylist material="material2" count="2">
          <input semantic="VERTEX" source="#vertices" offset="0"/>
          <vcount>3 3 </vcount>
          <p>373 374 375 374 376 375 </p>
        </polylist>
        <polylist material="material0" count="4">
          <input semantic="VERTEX" source="#vertices" offset="0"/>
          <vcount>3 3 3 3 </vcount>
          <p>377 378 379 378 380 379 379 380 381 380 382 381 </p>
        </polylist>
        <polylist material="material0" count="4">
          <input semantic="VERTEX" source="#vertices" offset="0"/>
          <vcount>3 3 3 3 </vcount>
          <p>383 384 385 384 386 385 387 388 389 388 390 389 </p>
        </polylist>
        <polylist material="material0" count="8">
          <input semantic="VERTEX" source="#vertices" offset="0"/>
          <vcount>3 3 3 3 3 3 3 3 </vcount>
          <p>391 392 393 392 394 393 393 394 395 396 397 398 397 399 398 400 401 402 401 403 402 404 405 406 </p>
        </polylist>
        <polylist material="material0" count="25">
          <input semantic="VERTEX" source="#vertices" offset="0"/>
          <vcount>3 3 3 3 3 3 3 3 3 3 3 3 3 3 3 3 3 3 3 3 3 3 3 3 3 </vcount>
          <p>407 408 409 408 410 409 409 410 411 410 412 411 411 412 413 412 414 413 413 414 415 416 417 418 417 419 418 418 419 420 419 421 420 420 421 422 423 424 425 424 426 425 425 426 427 426 428 427 429 430 431 430 432 431 433 434 435 434 436 435 437 438 439 438 440 439 441 442 443 442 444 443 445 446 447 </p>
        </polylist>
        <polylist material="material0" count="27">
          <input semantic="VERTEX" source="#vertices" offset="0"/>
          <vcount>3 3 3 3 3 3 3 3 3 3 3 3 3 3 3 3 3 3 3 3 3 3 3 3 3 3 3 </vcount>
          <p>448 449 450 449 451 450 450 451 452 451 453 452 452 453 454 453 455 454 456 457 458 457 459 458 458 459 460 459 461 460 462 463 464 463 465 464 464 465 466 465 467 466 468 469 470 469 471 470 472 473 474 473 475 474 476 477 478 477 479 478 480 481 482 481 483 482 484 485 486 485 487 486 488 489 490 489 491 490 492 493 494 </p>
        </polylist>
        <polylist material="material0" count="52">
          <input semantic="VERTEX" source="#vertices" offset="0"/>
          <vcount>3 3 3 3 3 3 3 3 3 3 3 3 3 3 3 3 3 3 3 3 3 3 3 3 3 3 3 3 3 3 3 3 3 3 3 3 3 3 3 3 3 3 3 3 3 3 3 3 3 3 3 3 </vcount>
          <p>495 496 497 496 498 497 497 498 499 498 500 499 499 500 501 500 502 501 501 502 503 502 504 503 503 504 505 504 506 505 505 506 507 506 508 507 507 508 509 508 510 509 509 510 511 510 512 511 511 512 513 512 514 513 513 514 515 516 517 518 517 519 518 518 519 520 519 521 520 520 521 522 521 523 522 522 523 524 525 526 527 526 528 527 527 528 529 528 530 529 529 530 531 532 533 534 533 535 534 534 535 536 535 537 536 538 539 540 539 541 540 540 541 542 543 544 545 544 546 545 545 546 547 548 549 550 549 551 550 552 553 554 553 555 554 556 557 558 557 559 558 560 561 562 561 563 562 564 565 566 565 567 566 568 569 570 </p>
        </polylist>
        <polylist material="material0" count="12">
          <input semantic="VERTEX" source="#vertices" offset="0"/>
          <vcount>3 3 3 3 3 3 3 3 3 3 3 3 </vcount>
          <p>571 572 573 572 574 573 573 574 575 574 576 575 575 576 577 576 578 577 577 578 579 578 580 579 581 582 583 582 584 583 585 586 587 586 588 587 </p>
        </polylist>
        <polylist material="material0" count="8">
          <input semantic="VERTEX" source="#vertices" offset="0"/>
          <vcount>3 3 3 3 3 3 3 3 </vcount>
          <p>589 590 591 590 592 591 591 592 593 594 595 596 595 597 596 596 597 598 599 600 601 600 602 601 </p>
        </polylist>
        <polylist material="material0" count="14">
          <input semantic="VERTEX" source="#vertices" offset="0"/>
          <vcount>3 3 3 3 3 3 3 3 3 3 3 3 3 3 </vcount>
          <p>603 604 605 604 606 605 605 606 607 606 608 607 607 608 609 608 610 609 609 610 611 610 612 611 611 612 613 614 615 616 615 617 616 616 617 618 619 620 621 620 622 621 </p>
        </polylist>
        <polylist material="material0" count="56">
          <input semantic="VERTEX" source="#vertices" offset="0"/>
          <vcount>3 3 3 3 3 3 3 3 3 3 3 3 3 3 3 3 3 3 3 3 3 3 3 3 3 3 3 3 3 3 3 3 3 3 3 3 3 3 3 3 3 3 3 3 3 3 3 3 3 3 3 3 3 3 3 3 </vcount>
          <p>623 624 625 624 626 625 625 626 627 626 628 627 627 628 629 628 630 629 629 630 631 630 632 631 631 632 633 632 634 633 633 634 635 634 636 635 635 636 637 636 638 637 639 640 641 640 642 641 641 642 643 642 644 643 643 644 645 644 646 645 645 646 647 646 648 647 647 648 649 648 650 649 649 650 651 650 652 651 651 652 653 654 655 656 655 657 656 656 657 658 657 659 658 660 661 662 661 663 662 662 663 664 663 665 664 666 667 668 667 669 668 668 669 670 671 672 673 672 674 673 673 674 675 676 677 678 677 679 678 678 679 680 681 682 683 682 684 683 683 684 685 686 687 688 687 689 688 688 689 690 691 692 693 692 694 693 693 694 695 696 697 698 697 699 698 698 699 700 </p>
        </polylist>
      </mesh>
    </geometry>
  </library_geometries>
  <library_controllers>
    <controller id="controller">
      <skin source="#geometry">
        <source id="controller-joints">
          <Name_array id="controller-joints-array" count="24">joint0 joint1 joint2 joint3 joint4 joint5 joint6 joint7 joint8 joint9 joint10 joint11 joint12 joint13 joint14 joint15 joint16 joint17 joint18 joint19 joint20 joint21 joint22 joint23 </Name_array>
          <technique_common>
            <accessor source="#controller-joints-array" count="24">
              <param name="JOINT" type="Name"/>
            </accessor>
          </technique_common>
        </source>
        <source id="controller-bind-poses">
          <float_array id="controller-bind-poses-array" count="384">1 -0 0 -0 -0 1 -0 -0.449951171875 0 -0 1 -0 -0 0 -0 1 0 -0 -1 -0 -0 1 -0 -0.449951171875 1 -0 0 -0 -0 0 -0 1 0 0.9998793151609182 0.010985002241758135 -0.4498968695902276 -0 -0.010985002241758135 0.9998793151609182 0.004942714631728575 1 -0 0 -0 -0 0 -0 1 0 0.9991868636820108 -0.0385823427389897 -0.5668716762074409 -0 0.0385823427389897 0.9991868636820108 -0.023180051610498725 1 -0 0 0 -0 0 -0 1 -1 -0 0 -0 -0 0.9998401114690267 -0.004898715309276038 -0.7636589308776662 -0 -0.004898715309276038 -0.9998401114690267 -0.003526976322548901 -0 0 0 1 -0.9991915653818293 -0.00020693856748649415 -0.0422366819298823 -0.14846648958552291 0.04224343617083491 -0.004894755018235456 -0.9990318061102796 0.0027463850638160237 0 -0.999840111469027 0.0048987153092760385 0.7639030715026666 -0 0 -0 1 -0.9998744581506509 0.00006820114917837543 0.013920026025537742 -0.3182481953716068 -0.01392225203396329 -0.004898100315496676 -0.9997145896923797 -0.015146183793173385 0.000000000000000000013547743439330803 -0.9998401114690268 0.0048987153092760385 0.7639030715026665 0 0 -0 1 1 -0 0 -0 -0 0.9998401114690267 -0.004898715309276038 -0.7636589308776662 -0 0.004898715309276038 0.9998401114690267 0.003526976322548901 -0 0 -0 1 0.9991915653818293 -0.00020693856748649415 -0.0422366819298823 -0.14846648958552291 -0.04224343617083491 -0.004894755018235456 -0.9990318061102796 0.0027463850638160237 0 0.999840111469027 -0.0048987153092760385 -0.7639030715026666 -0 0 0 1 0.9998914965322938 0.00006700824292897504 0.013676550860709506 -0.3184999647709638 0.013678737934023343 -0.004898183781677677 -0.9997316253497809 -0.015082469122533077 0 0.9998401114690271 -0.004898715309276039 -0.7639030715026666 -0 0 -0 1.0000000000000002 0 -0.9998401114690267 0.004898715309276038 0.7508731421831109 1 0 -0 -0.08251953124999999 -0 0.004898715309276038 0.9998401114690267 0.11472276556538018 -0 0 -0 1 -0 0.9984521820270713 0.05650346405436079 -0.7882533278189026 -0 -0.05650346405436079 0.9984521820270713 0.05192176922368172 0.9999999999999999 -0 0 -0 -0 0 -0 0.9999999999999999 0 1.000029731801764 -0.006010132723725477 -0.8299165764400463 -0 0.006010132723725477 1.000029731801764 0.000052084924547078556 1 -0 0 -0 -0 0 -0 1 0 -0.013089765194918062 -0.9999370552415459 -0.12993900482121473 -0 0.9999370552415459 -0.013089765194918062 -1.068385382870665 1 -0 0 -0 -0 0 -0 1 0 -0.013089765194918062 -0.9999370552415459 -0.2898511141962148 -0 0.9999370552415459 -0.013089765194918062 -1.0683853828706653 1 -0 0 -0 -0 0 -0 1 0 -0.013089765194918062 -0.9999370552415459 -0.4773511141962148 -0 0.9999370552415459 -0.013089765194918062 -1.0683853828706653 1 -0 0 -0 -0 0 -0 1 0 -0 -1 -0 -0 1 -0 -0.449951171875 1 -0 0 -0 -0 0 -0 1 0 -1 0 0.449951171875 -0 0 -1 0 1 -0 0 -0 -0 0 -0 1 0 -1 0 0.3974609375 -0 0 -1 0 1 -0 0 -0.090087890625 -0 0 -0 1 0 -1 0 0.3974609375 -0 0 -1 0 1 0 0 0.090087890625 -0 0 -0 1 0 -0.9999264353190592 0.01782530641716516 0.3149182376859342 -0 -0.01782530641716516 -0.9999264353190592 0.005613927069859144 1 -0 0 -0.09008789062500001 -0 0 -0 1 0 -0.9986716439011016 -0.05252202113529339 0.17473782882101246 -0 0.05252202113529339 -0.9986716439011016 -0.0066886562462820705 0.9999999999999999 -0 0 -0.09008789062499999 -0 0 -0 0.9999999999999999 0 -0.9999264353190592 0.01782530641716516 0.3149182376859342 -0 -0.01782530641716516 -0.9999264353190592 0.005613927069859144 1 0 0 0.09008789062500001 -0 0 -0 1 0 -0.9986716439011016 -0.05252202113529339 0.17473782882101246 -0 0.05252202113529339 -0.9986716439011016 -0.0066886562462820705 0.9999999999999999 -0 0 0.09008789062499999 -0 0 -0 0.9999999999999999 </float_array>
          <technique_common>
            <accessor source="#controller-bind-poses-array" count="24" stride="16">
              <param name="TRANSFORM" type="float4x4"/>
            </accessor>
          </technique_common>
        </source>
        <source id="controller-weights">
          <float_array id="controller-weights-array" count="1">1 </float_array>
          <technique_common>
            <accessor source="#controller-weights-array" count="1">
              <param name="WEIGHT" type="float"/>
            </accessor>
          </technique_common>
        </source>
        <joints>
          <input semantic="JOINT" source="#controller-joints"/>
          <input semantic="INV_BIND_MATRIX" source="#controller-bind-poses"/>
        </joints>
        <vertex_weights count="701">
          <input semantic="JOINT" source="#controller-joints" offset="0"/>
          <input semantic="WEIGHT" source="#controller-weights" offset="1"/>
          <vcount>1 1 1 1 1 1 1 1 1 1 1 1 1 1 1 1 1 1 1 1 1 1 1 1 1 1 1 1 1 1 1 1 1 1 1 1 1 1 1 1 1 1 1 1 1 1 1 1 1 1 1 1 1 1 1 1 1 1 1 1 1 1 1 1 1 1 1 1 1 1 1 1 1 1 1 1 1 1 1 1 1 1 1 1 1 1 1 1 1 1 1 1 1 1 1 1 1 1 1 1 1 1 1 1 1 1 1 1 1 1 1 1 1 1 1 1 1 1 1 1 1 1 1 1 1 1 1 1 1 1 1 1 1 1 1 1 1 1 1 1 1 1 1 1 1 1 1 1 1 1 1 1 1 1 1 1 1 1 1 1 1 1 1 1 1 1 1 1 1 1 1 1 1 1 1 1 1 1 1 1 1 1 1 1 1 1 1 1 1 1 1 1 1 1 1 1 1 1 1 1 1 1 1 1 1 1 1 1 1 1 1 1 1 1 1 1 1 1 1 1 1 1 1 1 1 1 1 1 1 1 1 1 1 1 1 1 1 1 1 1 1 1 1 1 1 1 1 1 1 1 1 1 1 1 1 1 1 1 1 1 1 1 1 1 1 1 1 1 1 1 1 1 1 1 1 1 1 1 1 1 1 1 1 1 1 1 1 1 1 1 1 1 1 1 1 1 1 1 1 1 1 1 1 1 1 1 1 1 1 1 1 1 1 1 1 1 1 1 1 1 1 1 1 1 1 1 1 1 1 1 1 1 1 1 1 1 1 1 1 1 1 1 1 1 1 1 1 1 1 1 1 1 1 1 1 1 1 1 1 1 1 1 1 1 1 1 1 1 1 1 1 1 1 1 1 1 1 1 1 1 1 1 1 1 1 1 1 1 1 1 1 1 1 1 1 1 1 1 1 1 1 1 1 1 1 1 1 1 1 1 1 1 1 1 1 1 1 1 1 1 1 1 1 1 1 1 1 1 1 1 1 1 1 1 1 1 1 1 1 1 1 1 1 1 1 1 1 1 1 1 1 1 1 1 1 1 1 1 1 1 1 1 1 1 1 1 1 1 1 1 1 1 1 1 1 1 1 1 1 1 1 1 1 1 1 1 1 1 1 1 1 1 1 1 1 1 1 1 1 1 1 1 1 1 1 1 1 1 1 1 1 1 1 1 1 1 1 1 1 1 1 1 1 1 1 1 1 1 1 1 1 1 1 1 1 1 1 1 1 1 1 1 1 1 1 1 1 1 1 1 1 1 1 1 1 1 1 1 1 1 1 1 1 1 1 1 1 1 1 1 1 1 1 1 1 1 1 1 1 1 1 1 1 1 1 1 1 1 1 1 1 1 1 1 1 1 1 1 1 1 1 1 1 1 1 1 1 1 1 1 1 1 1 1 1 1 1 1 1 1 1 1 1 1 1 1 1 1 1 1 1 1 1 1 1 1 1 1 1 1 1 1 1 1 1 1 1 1 1 1 1 1 1 1 1 1 1 1 1 1 1 1 1 1 1 1 1 1 1 1 1 1 1 1 1 1 1 1 1 1 1 1 1 1 1 1 1 1 1 1 1 1 1 1 1 1 1 1 1 1 1 </vcount>
          <v>3 0 2 0 3 0 2 0 3 0 3 0 2 0 3 0 2 0 3 0 3 0 3 0 2 0 3 0 2 0 2 0 2 0 2 0 3 0 2 0 6 0 6 0 6 0 6 0 6 0 6 0 6 0 6 0 6 0 6 0 9 0 9 0 9 0 9 0 9 0 9 0 9 0 9 0 9 0 9 0 6 0 6 0 6 0 6 0 6 0 9 0 9 0 9 0 9 0 9 0 6 0 6 0 6 0 9 0 9 0 9 0 9 0 9 0 9 0 8 0 8 0 8 0 8 0 8 0 8 0 8 0 8 0 8 0 9 0 8 0 9 0 6 0 6 0 6 0 5 0 5 0 5 0 5 0 5 0 5 0 5 0 5 0 5 0 5 0 5 0 6 0 6 0 6 0 5 0 6 0 5 0 5 0 8 0 8 0 8 0 8 0 9 0 9 0 9 0 8 0 8 0 8 0 8 0 8 0 5 0 5 0 5 0 5 0 6 0 6 0 6 0 6 0 8 0 9 0 9 0 9 0 6 0 5 0 5 0 6 0 6 0 5 0 5 0 5 0 5 0 9 0 9 0 9 0 10 0 10 0 10 0 10 0 10 0 10 0 10 0 10 0 10 0 10 0 10 0 10 0 10 0 10 0 10 0 10 0 10 0 10 0 10 0 10 0 10 0 10 0 10 0 10 0 10 0 10 0 10 0 10 0 10 0 10 0 10 0 10 0 10 0 10 0 10 0 10 0 10 0 10 0 10 0 10 0 10 0 10 0 10 0 10 0 10 0 10 0 10 0 10 0 10 0 10 0 10 0 10 0 10 0 10 0 10 0 10 0 10 0 10 0 10 0 10 0 10 0 10 0 10 0 10 0 10 0 10 0 10 0 10 0 10 0 10 0 10 0 10 0 10 0 10 0 10 0 10 0 10 0 10 0 10 0 10 0 10 0 10 0 10 0 10 0 10 0 10 0 10 0 10 0 10 0 10 0 10 0 10 0 10 0 10 0 10 0 10 0 10 0 10 0 10 0 10 0 10 0 10 0 10 0 10 0 10 0 10 0 10 0 10 0 10 0 10 0 10 0 10 0 10 0 10 0 10 0 10 0 10 0 10 0 10 0 10 0 10 0 10 0 10 0 10 0 10 0 10 0 10 0 10 0 10 0 10 0 10 0 10 0 10 0 10 0 10 0 10 0 10 0 10 0 10 0 10 0 10 0 10 0 10 0 10 0 10 0 10 0 10 0 10 0 10 0 10 0 10 0 10 0 10 0 10 0 10 0 10 0 10 0 10 0 10 0 10 0 10 0 10 0 10 0 10 0 10 0 10 0 10 0 10 0 10 0 10 0 10 0 10 0 10 0 10 0 10 0 10 0 10 0 10 0 10 0 10 0 10 0 10 0 10 0 10 0 10 0 10 0 10 0 10 0 10 0 10 0 10 0 10 0 10 0 10 0 10 0 10 0 10 0 10 0 10 0 10 0 10 0 10 0 10 0 10 0 10 0 3 0 3 0 3 0 3 0 3 0 3 0 11 0 3 0 3 0 3 0 3 0 3 0 3 0 3 0 3 0 3 0 3 0 3 0 3 0 3 0 3 0 3 0 3 0 11 0 3 0 3 0 3 0 3 0 3 0 3 0 12 0 12 0 12 0 12 0 12 0 12 0 12 0 12 0 12 0 12 0 12 0 12 0 12 0 12 0 12 0 12 0 12 0 12 0 12 0 12 0 12 0 12 0 12 0 12 0 12 0 12 0 12 0 12 0 12 0 12 0 12 0 12 0 12 0 12 0 12 0 12 0 12 0 12 0 12 0 12 0 12 0 12 0 12 0 12 0 12 0 12 0 12 0 12 0 12 0 12 0 12 0 12 0 12 0 12 0 12 0 12 0 12 0 12 0 12 0 12 0 12 0 12 0 12 0 12 0 12 0 12 0 12 0 12 0 12 0 12 0 12 0 12 0 12 0 12 0 12 0 12 0 12 0 12 0 12 0 12 0 12 0 12 0 12 0 12 0 12 0 12 0 12 0 12 0 12 0 12 0 12 0 12 0 12 0 12 0 12 0 12 0 12 0 12 0 12 0 12 0 12 0 12 0 12 0 12 0 12 0 12 0 12 0 12 0 12 0 12 0 12 0 12 0 12 0 12 0 12 0 12 0 12 0 12 0 12 0 12 0 12 0 12 0 12 0 12 0 12 0 12 0 12 0 12 0 12 0 12 0 12 0 12 0 12 0 12 0 12 0 13 0 12 0 13 0 13 0 14 0 13 0 14 0 13 0 14 0 13 0 13 0 12 0 12 0 12 0 12 0 12 0 12 0 12 0 12 0 12 0 12 0 12 0 12 0 12 0 12 0 13 0 13 0 14 0 14 0 15 0 14 0 14 0 13 0 13 0 12 0 12 0 12 0 12 0 12 0 12 0 13 0 13 0 12 0 13 0 12 0 12 0 12 0 12 0 13 0 12 0 12 0 12 0 12 0 12 0 12 0 12 0 12 0 12 0 12 0 12 0 12 0 13 0 12 0 13 0 12 0 12 0 15 0 14 0 14 0 13 0 12 0 12 0 12 0 17 0 17 0 2 0 17 0 2 0 17 0 2 0 17 0 2 0 2 0 17 0 17 0 2 0 2 0 17 0 17 0 2 0 2 0 17 0 18 0 17 0 18 0 18 0 18 0 17 0 17 0 19 0 19 0 19 0 19 0 17 0 17 0 19 0 19 0 17 0 19 0 17 0 17 0 17 0 18 0 17 0 18 0 18 0 17 0 18 0 17 0 17 0 17 0 17 0 17 0 19 0 17 0 21 0 21 0 21 0 21 0 20 0 21 0 20 0 20 0 20 0 20 0 20 0 20 0 20 0 20 0 20 0 21 0 23 0 23 0 23 0 22 0 22 0 22 0 22 0 22 0 22 0 22 0 22 0 22 0 23 0 22 0 23 0 20 0 20 0 20 0 20 0 21 0 21 0 20 0 21 0 21 0 21 0 21 0 21 0 23 0 23 0 23 0 22 0 23 0 22 0 22 0 22 0 22 0 23 0 22 0 22 0 22 0 22 0 22 0 23 0 23 0 23 0 23 0 23 0 23 0 23 0 23 0 23 0 23 0 20 0 20 0 20 0 20 0 20 0 21 0 21 0 21 0 21 0 21 0 </v>
        </vertex_weights>
      </skin>
    </controller>
  </library_controllers>
  <library_visual_scenes>
    <visual_scene id="scene0" name="link_model_S">
      <node id="joint0" sid="joint0" name="center" type="JOINT">
        <matrix sid="transform">1 0 0 0 0 1 0 0.449951171875 0 0 1 0 0 0 0 1</matrix>
        <node id="joint1" sid="joint1" name="body_chn" type="JOINT">
          <matrix sid="transform">0 0 1 0 0 1 0 0 -1 0 0 0 0 0 0 1</matrix>
          <node id="joint2" sid="joint2" name="stomach_jnt" type="JOINT">
            <matrix sid="transform">-0.010986328125 -1 0 0 1 -0.010986328125 0 0 0 0 1 0 0 0 0 1</matrix>
            <node id="joint3" sid="joint3" name="chest_jnt" type="JOINT">
              <matrix sid="transform">0.998779296875 0.049560546875 0 0.117431640625 -0.049560546875 0.998779296875 0 0 0 0 1 0 0 0 0 1</matrix>
              <node id="joint4" sid="joint4" name="Rshoulder_jnt" type="JOINT">
                <matrix sid="transform">0 0.99951171875 0.03369140625 0.196533203125 0 0.03369140625 -0.99951171875 -0.0009765625 -1 0 0 0 0 0 0 1</matrix>
                <node id="joint5" sid="joint5" name="RarmA_jnt" type="JOINT">
                  <matrix sid="transform">0.9990234375 -0.042236328125 0 0.1484375 0 0 -1 0.000244140625 0.042236328125 0.9990234375 0 0 0 0 0 1</matrix>
                  <node id="joint6" sid="joint6" name="RarmB_jnt" type="JOINT">
                    <matrix sid="transform">0.99853515625 0.05615234375 0 0.170166015625 -0.05615234375 0.99853515625 0 0 0 0 1 0 0 0 0 1</matrix>
                  </node>
                </node>
              </node>
              <node id="joint7" sid="joint7" name="Lshoulder_jnt" type="JOINT">
                <matrix sid="transform">0 0.99951171875 -0.03369140625 0.196533203125 0 0.03369140625 0.99951171875 -0.0009765625 1 0 0 0 0 0 0 1</matrix>
                <node id="joint8" sid="joint8" name="LarmA_jnt" type="JOINT">
                  <matrix sid="transform">0.9990234375 -0.042236328125 0 0.1484375 0 0 1 0.000244140625 -0.042236328125 -0.9990234375 0 0 0 0 0 1</matrix>
                  <node id="joint9" sid="joint9" name="LarmB_jnt" type="JOINT">
                    <matrix sid="transform">0.99853515625 0.055908203125 0 0.17041015625 -0.055908203125 0.99853515625 0 0 0 0 1 0 0 0 0 1</matrix>
                  </node>
                </node>
              </node>
              <node id="joint10" sid="joint10" name="cl_podA" type="JOINT">
                <matrix sid="transform">-0.99951171875 0 -0.03369140625 0.1875 -0.03369140625 0 0.99951171875 -0.112548828125 0 1 0 0.08251953125 0 0 0 1</matrix>
              </node>
              <node id="joint11" sid="joint11" name="neck_jnt" type="JOINT">
                <matrix sid="transform">0.995361328125 -0.094970703125 0 0.22265625 0.094970703125 0.995361328125 0 0 0 0 1 0 0 0 0 1</matrix>
                <node id="joint12" sid="joint12" name="head_jnt" type="JOINT">
                  <matrix sid="transform">0.998046875 0.0625 0 0.0400390625 -0.0625 0.998046875 0 0 0 0 1 0 0 0 0 1</matrix>
                  <node id="joint13" sid="joint13" name="hatA_jnt" type="JOINT">
                    <matrix sid="transform">-0.007080078125 1 0 0.237548828125 -1 -0.007080078125 0 -0.137451171875 0 0 1 0 0 0 0 1</matrix>
                    <node id="joint14" sid="joint14" name="hatB_jnt" type="JOINT">
                      <matrix sid="transform">1 0 0 0.159912109375 0 1 0 0 0 0 1 0 0 0 0 1</matrix>
                      <node id="joint15" sid="joint15" name="hatC_jnt" type="JOINT">
                        <matrix sid="transform">1 0 0 0.1875 0 1 0 0 0 0 1 0 0 0 0 1</matrix>
                      </node>
                    </node>
                  </node>
                </node>
              </node>
            </node>
          </node>
        </node>
        <node id="joint16" sid="joint16" name="waist_chn" type="JOINT">
          <matrix sid="transform">0 0 1 0 0 1 0 0 -1 0 0 0 0 0 0 1</matrix>
          <node id="joint17" sid="joint17" name="waist_jnt" type="JOINT">
            <matrix sid="transform">0 1 0 0 -1 0 0 0 0 0 1 0 0 0 0 1</matrix>
            <node id="joint18" sid="joint18" name="Lclotch_jnt" type="JOINT">
              <matrix sid="transform">1 0 0 0.052490234375 0 1 0 0 0 0 1 0.090087890625 0 0 0 1</matrix>
              <node id="joint20" sid="joint20" name="LlegA_jnt" type="JOINT">
                <matrix sid="transform">0.999755859375 0.017822265625 0 0.08251953125 -0.017822265625 0.999755859375 0 0 0 0 1 0 0 0 0 1</matrix>
                <node id="joint21" sid="joint21" name="LlegB_jnt" type="JOINT">
                  <matrix sid="transform">0.99755859375 -0.0703125 0 0.14013671875 0.0703125 0.99755859375 0 0 0 0 1 0 0 0 0 1</matrix>
                </node>
              </node>
            </node>
            <node id="joint19" sid="joint19" name="Rclotch_jnt" type="JOINT">
              <matrix sid="transform">1 0 0 0.052490234375 0 1 0 0 0 0 1 -0.090087890625 0 0 0 1</matrix>
              <node id="joint22" sid="joint22" name="RlegA_jnt" type="JOINT">
                <matrix sid="transform">0.999755859375 0.017822265625 0 0.08251953125 -0.017822265625 0.999755859375 0 0 0 0 1 0 0 0 0 1</matrix>
                <node id="joint23" sid="joint23" name="RlegB_jnt" type="JOINT">
                  <matrix sid="transform">0.99755859375 -0.0703125 0 0.14013671875 0.0703125 0.99755859375 0 0 0 0 1 0 0 0 0 1</matrix>
                </node>
              </node>
            </node>
          </node>
        </node>
      </node>
      <node id="node" name="link_model_S" type="NODE">
        <instance_controller url="#controller">
          <skeleton>#joint0</skeleton>
          <bind_material>
            <technique_common>
              <instance_material symbol="material0" target="#material0">
                <bind_vertex_input semantic="tc" input_semantic="TEXCOORD"/>
              </instance_material>
              <instance_material symbol="material1" target="#material1">
                <bind_vertex_input semantic="tc" input_semantic="TEXCOORD"/>
              </instance_material>
              <instance_material symbol="material2" target="#material2">
                <bind_vertex_input semantic="tc" input_semantic="TEXCOORD"/>
              </instance_material>
              <instance_material symbol="material3" target="#material3">
                <bind_vertex_input semantic="tc" input_semantic="TEXCOORD"/>
              </instance_material>
              <instance_material symbol="material4" target="#material4">
                <bind_vertex_input semantic="tc" input_semantic="TEXCOORD"/>
              </instance_material>
            </technique_common>
          </bind_material>
        </instance_controller>
      </node>
    </visual_scene>
  </library_visual_scenes>
  <scene>
    <instance_visual_scene url="#scene0"/>
  </scene>
</COLLADA>
